<svg width="29" height="29" viewBox="0 0 29 29" fill="none" xmlns="http://www.w3.org/2000/svg">
<rect x="0.723145" y="0.29541" width="28" height="28" rx="2.75032" fill="#E5E5E5"/>
<path d="M20.5565 7.62858H19.7231V5.96191H18.0565V7.62858H11.3898V5.96191H9.72314V7.62858H8.88981C7.96481 7.62858 7.23148 8.37858 7.23148 9.29525L7.22314 20.9619C7.22314 21.8786 7.96481 22.6286 8.88981 22.6286H20.5565C21.4731 22.6286 22.2231 21.8786 22.2231 20.9619V9.29525C22.2231 8.37858 21.4731 7.62858 20.5565 7.62858ZM20.5565 20.9619H8.88981V12.6286H20.5565V20.9619ZM20.5565 10.9619H8.88981V9.29525H20.5565V10.9619ZM12.2231 15.9619H10.5565V14.2952H12.2231V15.9619ZM15.5565 15.9619H13.8898V14.2952H15.5565V15.9619ZM18.8898 15.9619H17.2231V14.2952H18.8898V15.9619ZM12.2231 19.2952H10.5565V17.6286H12.2231V19.2952ZM15.5565 19.2952H13.8898V17.6286H15.5565V19.2952ZM18.8898 19.2952H17.2231V17.6286H18.8898V19.2952Z" fill="#979797"/>
</svg>
