<svg width="29" height="29" viewBox="0 0 29 29" fill="none" xmlns="http://www.w3.org/2000/svg">
<rect x="0.825195" y="0.29541" width="28" height="28" rx="2.75032" fill="#E5E5E5"/>
<path d="M14.8254 9.71208C17.9837 9.71208 20.8004 11.4871 22.1754 14.2954C20.8004 17.1037 17.992 18.8787 14.8254 18.8787C11.6587 18.8787 8.85036 17.1037 7.47536 14.2954C8.85036 11.4871 11.667 9.71208 14.8254 9.71208ZM14.8254 8.04541C10.6587 8.04541 7.10036 10.6371 5.65869 14.2954C7.10036 17.9537 10.6587 20.5454 14.8254 20.5454C18.992 20.5454 22.5504 17.9537 23.992 14.2954C22.5504 10.6371 18.992 8.04541 14.8254 8.04541ZM14.8254 12.2121C15.9754 12.2121 16.9087 13.1454 16.9087 14.2954C16.9087 15.4454 15.9754 16.3787 14.8254 16.3787C13.6754 16.3787 12.742 15.4454 12.742 14.2954C12.742 13.1454 13.6754 12.2121 14.8254 12.2121ZM14.8254 10.5454C12.7587 10.5454 11.0754 12.2287 11.0754 14.2954C11.0754 16.3621 12.7587 18.0454 14.8254 18.0454C16.892 18.0454 18.5754 16.3621 18.5754 14.2954C18.5754 12.2287 16.892 10.5454 14.8254 10.5454Z" fill="#979797"/>
</svg>
