<svg width="56" height="57" viewBox="0 0 56 57" fill="none" xmlns="http://www.w3.org/2000/svg">
<path d="M27.2753 8.55469C28.0436 8.61886 28.6506 8.83219 29.0617 9.31434C29.5369 9.86588 29.8422 10.707 29.9844 11.8066V17.0635C29.6398 16.8933 29.2758 16.7658 28.9004 16.6837C27.8684 16.4947 26.8139 16.5293 25.8115 16.5762C24.8073 16.6178 23.8083 16.623 23.0469 16.4131C22.2855 16.2033 21.7079 15.879 21.2032 15.0048C21.109 14.8373 20.9633 14.7046 20.7877 14.6265C20.6121 14.5484 20.416 14.529 20.2285 14.5712C20.0808 14.6179 19.948 14.7026 19.8433 14.8167C19.7386 14.9308 19.6657 15.0705 19.6319 15.2216C19.6631 15.1037 19.5417 15.376 19.3076 15.6552C19.0717 15.9327 18.7283 16.2709 18.3866 16.5762C18.1941 16.7479 18.0259 16.871 17.8438 17.0098V13.3242C17.8438 11.6211 19.1619 10.2891 20.8251 10.2891H24.7257C25.4293 10.2392 26.1052 9.99544 26.6787 9.58491C26.9874 9.36464 27.0637 8.90503 27.2753 8.55469ZM20.7159 16.6299C21.3229 17.2196 21.8883 17.8943 22.6133 18.0938C23.7129 18.3973 24.8333 18.3539 25.8652 18.3105C26.8972 18.2672 27.8598 18.2325 28.5761 18.3643C29.2178 18.4823 29.6392 18.7285 29.9844 19.2315V21.5625C29.9844 24.9966 27.2874 27.6866 23.9141 27.6866C20.5407 27.6866 17.8438 24.9966 17.8438 21.5625V19.124C18.0155 19.0407 18.1611 18.9054 18.3311 18.7979C18.7404 18.5378 19.1272 18.2308 19.5244 17.877C19.91 17.5408 20.2721 17.1786 20.6083 16.793C20.6517 16.7409 20.6743 16.6802 20.7159 16.6299ZM39.957 27.6328C45.7152 27.6328 50.3633 32.2809 50.3633 38.0391C50.3633 43.7972 45.7152 48.4453 39.957 48.4453C34.1989 48.4453 29.5508 43.7972 29.5508 38.0391C29.5508 32.2809 34.1989 27.6328 39.957 27.6328ZM19.5781 25.9193C20.8113 26.7413 22.3219 27.1663 23.9141 27.1663C25.5062 27.1663 27.0169 26.7413 28.25 25.9193V29.225C27.551 30.5344 26.9319 31.9115 25.3779 33.2366L25.3241 33.2903L23.9141 34.5911L22.6133 33.2903L22.504 33.1811C21.2917 31.8716 20.1453 30.3228 19.5781 28.8451V25.9193ZM39.957 29.3672C35.1771 29.3672 31.2852 33.2591 31.2852 38.0391C31.2884 40.3383 32.2029 42.5425 33.8284 44.1687C35.4539 45.7948 37.6578 46.7103 39.957 46.7144C44.737 46.7144 48.6289 42.819 48.6289 38.0391C48.6289 33.2591 44.737 29.3672 39.957 29.3672ZM39.957 30.9836C40.8842 30.9818 41.8027 31.163 42.6597 31.5169C43.5167 31.8708 44.2955 32.3904 44.9513 33.0458C45.6071 33.7013 46.127 34.4798 46.4813 35.3366C46.8356 36.1935 47.0173 37.1119 47.0159 38.0391C47.0173 38.9664 46.8357 39.885 46.4814 40.742C46.1271 41.5991 45.6072 42.3778 44.9515 43.0335C44.2957 43.6893 43.517 44.2092 42.66 44.5634C41.8029 44.9177 40.8844 45.0993 39.957 45.098C39.0297 45.0993 38.1111 44.9177 37.2541 44.5634C36.397 44.2092 35.6183 43.6893 34.9626 43.0335C34.3068 42.3778 33.7869 41.5991 33.4327 40.742C33.0784 39.885 32.8968 38.9664 32.8981 38.0391C32.8968 37.1119 33.0784 36.1935 33.4327 35.3366C33.787 34.4798 34.307 33.7013 34.9628 33.0458C35.6186 32.3904 36.3973 31.8708 37.2543 31.5169C38.1114 31.163 39.0298 30.9818 39.957 30.9836ZM39.9432 32.9573C39.6686 32.9602 39.4041 33.0611 39.1974 33.2418C39.0606 33.3555 38.9393 33.4867 38.8366 33.632C38.6447 33.9001 38.4725 34.1818 38.3215 34.4749C38.1654 34.7611 38.0215 35.0455 37.9053 35.2519C37.855 35.3369 37.8012 35.3959 37.7613 35.4427C37.7023 35.467 37.6278 35.4999 37.5324 35.519C37.3 35.5693 36.9878 35.6213 36.6687 35.682C36.3436 35.7372 36.0231 35.8161 35.7095 35.9179C35.5535 35.9717 35.3956 36.0359 35.2239 36.1486C34.9902 36.2913 34.8149 36.5127 34.7296 36.773C34.6474 37.0333 34.661 37.3144 34.7678 37.5656C34.8406 37.7564 34.9325 37.9003 35.0279 38.0356C35.2205 38.3079 35.4477 38.5455 35.6714 38.7814C35.8969 39.0155 36.1189 39.2445 36.2784 39.4214C36.3443 39.4942 36.386 39.5584 36.4206 39.6121C36.4241 39.6746 36.431 39.7596 36.4206 39.8584C36.3964 40.0943 36.3513 40.41 36.3079 40.7325C36.2597 41.0575 36.2354 41.3856 36.2351 41.7142C36.2368 41.8807 36.2524 42.0472 36.3044 42.2432C36.3599 42.4392 36.4605 42.7028 36.745 42.9075C36.9687 43.0662 37.2418 43.14 37.515 43.1156C37.718 43.0982 37.881 43.0653 38.0405 43.015C38.3579 42.9161 38.658 42.7774 38.9511 42.6352C39.2442 42.4964 39.5269 42.3507 39.7437 42.2536C39.8322 42.2137 39.9102 42.1946 39.9692 42.179C40.0316 42.1964 40.1131 42.2137 40.205 42.2536C40.4218 42.3507 40.7028 42.4895 40.9977 42.6282C41.2925 42.767 41.5925 42.9057 41.9117 43.0011C42.0712 43.0497 42.2325 43.0896 42.4372 43.1C42.6401 43.1173 42.9228 43.1034 43.2055 42.8901C43.4263 42.7253 43.5812 42.4874 43.6426 42.2189C43.6871 42.0462 43.7087 41.8683 43.7068 41.6899C43.712 41.3587 43.6721 41.0309 43.6287 40.7083C43.5853 40.3857 43.5368 40.07 43.5108 39.8341C43.5004 39.7335 43.5038 39.6503 43.5073 39.5879C43.542 39.5341 43.5836 39.463 43.6495 39.3936C43.8073 39.2167 44.0311 38.9947 44.2565 38.7571C44.4785 38.5212 44.7023 38.2784 44.8931 38.0044C44.9885 37.8674 45.0786 37.7269 45.1497 37.5361C45.2537 37.2821 45.2636 36.9994 45.1778 36.7387C45.0919 36.478 44.916 36.2565 44.6815 36.1139C44.5307 36.018 44.368 35.9422 44.1976 35.8884C43.8837 35.7809 43.5593 35.7237 43.2402 35.663C42.9193 35.6057 42.6054 35.5537 42.373 35.5069C42.2759 35.4843 42.1996 35.4548 42.1423 35.4306C42.1025 35.382 42.0487 35.323 42.0001 35.238C41.8787 35.0317 41.733 34.7507 41.5769 34.4645C41.4242 34.1724 41.2503 33.8918 41.0566 33.6251C40.9526 33.4798 40.8301 33.3487 40.6924 33.2348C40.4834 33.0566 40.2179 32.9582 39.9432 32.9573ZM17.1934 32.999L16.1094 36.8458V36.9551C15.9463 38.3044 17.4102 39.4422 18.6572 38.8525V38.797L21.8554 37.2256L23.0469 38.3651V47.5781H14.375V43.2422H12.6406V47.5781H7.4375V41.6708C7.4375 39.7318 8.46425 37.9177 10.1483 36.9551L17.1934 32.999ZM18.9277 32.999C19.4827 33.998 20.0325 34.9588 20.7714 35.8173L17.8975 37.2794C17.8316 37.3106 17.8264 37.3176 17.8438 37.1719L18.9277 32.999ZM28.3003 34.664C28.1571 35.169 28.047 35.6829 27.9708 36.2024L27.2735 35.8676C27.6534 35.4531 27.9933 35.0542 28.3003 34.664ZM39.9501 35.1253C39.9883 35.1947 40.016 35.2259 40.0542 35.2987C40.1981 35.5589 40.3473 35.8468 40.4999 36.1087C40.6508 36.3689 40.7236 36.5909 41.1069 36.8666C41.4885 37.1441 41.7244 37.1407 42.0192 37.2031C42.3158 37.2638 42.6349 37.3141 42.928 37.3679L43.124 37.413C43.072 37.4702 43.0477 37.5049 42.9922 37.5656C42.7875 37.7824 42.5603 38.0096 42.3591 38.235C42.1562 38.4605 41.9672 38.5993 41.8232 39.0485C41.6793 39.4977 41.7538 39.7249 41.7868 40.0249C41.8198 40.325 41.8683 40.6389 41.9082 40.9355C41.9186 41.017 41.9169 41.0621 41.9255 41.1384C41.8562 41.1072 41.8128 41.095 41.7382 41.0603C41.4694 40.9337 41.1832 40.7863 40.9057 40.6649C40.6282 40.5418 40.4375 40.4047 39.9674 40.4065C39.4957 40.4082 39.3049 40.547 39.0291 40.6718C38.7516 40.7933 38.4672 40.9424 38.1984 41.0707C38.1255 41.1072 38.0822 41.1176 38.0128 41.1488C38.0215 41.0725 38.0197 41.0274 38.0301 40.9493C38.0683 40.6528 38.1169 40.3354 38.1481 40.0336C38.1793 39.7335 38.2521 39.5098 38.1047 39.0623C37.9573 38.6131 37.7648 38.4761 37.5619 38.2524C37.3589 38.0287 37.1317 37.8015 36.9253 37.5847C36.8681 37.5257 36.8456 37.4893 36.7935 37.432C36.8681 37.4147 36.9097 37.3991 36.9895 37.3852C37.2844 37.3297 37.5983 37.2811 37.8949 37.2152C38.1897 37.1511 38.4238 37.1511 38.8054 36.8736C39.187 36.5961 39.2581 36.3706 39.409 36.1087C39.5581 35.8451 39.7038 35.5572 39.846 35.2953C39.8842 35.2242 39.9137 35.1912 39.9501 35.1253ZM26.082 37.2256L27.8164 38.0529C27.8198 39.8899 28.241 41.7021 29.048 43.3524C29.8551 45.0026 31.027 46.4476 32.4749 47.5781H24.7812V38.4189L26.082 37.2256ZM26.5156 41.5078C26.2856 41.5078 26.0651 41.5992 25.9024 41.7618C25.7398 41.9244 25.6484 42.145 25.6484 42.375C25.6484 42.605 25.7398 42.8256 25.9024 42.9882C26.0651 43.1508 26.2856 43.2422 26.5156 43.2422C26.7456 43.2422 26.9662 43.1508 27.1288 42.9882C27.2914 42.8256 27.3828 42.605 27.3828 42.375C27.3828 42.145 27.2914 41.9244 27.1288 41.7618C26.9662 41.5992 26.7456 41.5078 26.5156 41.5078ZM26.5156 44.9766C26.2856 44.9766 26.0651 45.0679 25.9024 45.2306C25.7398 45.3932 25.6484 45.6138 25.6484 45.8438C25.6484 46.0737 25.7398 46.2943 25.9024 46.4569C26.0651 46.6196 26.2856 46.7109 26.5156 46.7109C26.7456 46.7109 26.9662 46.6196 27.1288 46.4569C27.2914 46.2943 27.3828 46.0737 27.3828 45.8438C27.3828 45.6138 27.2914 45.3932 27.1288 45.2306C26.9662 45.0679 26.7456 44.9766 26.5156 44.9766Z" fill="#34A853"/>
</svg>
