<svg width="467" height="109" viewBox="0 0 467 109" fill="none" xmlns="http://www.w3.org/2000/svg">
<path d="M0 4.06641C0 1.85727 1.79086 0.0664062 4 0.0664062H78C80.2091 0.0664062 82 1.85727 82 4.06641V24.0664H0V4.06641Z" fill="#059B36"/>
<path d="M18.6818 17.5664L20.6136 5.93004H22.0227L21.1591 11.1119H27.3636L28.2273 5.93004H29.6364L27.7045 17.5664H26.2955L27.1591 12.3619H20.9545L20.0909 17.5664H18.6818ZM32.8892 17.771C32.3362 17.771 31.8513 17.6668 31.4347 17.4585C31.018 17.2463 30.7093 16.9414 30.5085 16.5437C30.3078 16.1422 30.2528 15.6573 30.3438 15.0891C30.4309 14.5891 30.5994 14.1838 30.8494 13.8732C31.0994 13.5588 31.4025 13.3126 31.7585 13.1346C32.1184 12.9528 32.5047 12.8183 32.9176 12.7312C33.3343 12.6403 33.7491 12.5702 34.1619 12.521C34.6998 12.4528 35.1373 12.3997 35.4744 12.3619C35.8116 12.324 36.0653 12.2615 36.2358 12.1744C36.4063 12.0872 36.5104 11.9376 36.5483 11.7255V11.68C36.6392 11.1232 36.5653 10.6895 36.3267 10.3789C36.0881 10.0645 35.6619 9.90732 35.0483 9.90732C34.4119 9.90732 33.8797 10.0475 33.4517 10.3278C33.0237 10.6081 32.7074 10.9073 32.5028 11.2255L31.321 10.771C31.6316 10.2406 32.0028 9.82777 32.4347 9.53232C32.8665 9.23307 33.3191 9.02474 33.7926 8.90732C34.2661 8.7861 34.7225 8.7255 35.1619 8.7255C35.4422 8.7255 35.7585 8.75959 36.1108 8.82777C36.4631 8.89216 36.7926 9.02663 37.0994 9.23118C37.41 9.43572 37.643 9.74444 37.7983 10.1573C37.9574 10.5702 37.9801 11.1232 37.8665 11.8164L36.9119 17.5664H35.571L35.7756 16.3846H35.7074C35.5862 16.574 35.4006 16.7766 35.1506 16.9925C34.9044 17.2085 34.5919 17.3922 34.2131 17.5437C33.8381 17.6952 33.3968 17.771 32.8892 17.771ZM33.2756 16.5664C33.8059 16.5664 34.2699 16.4622 34.6676 16.2539C35.0691 16.0456 35.3911 15.7766 35.6335 15.4471C35.8797 15.1175 36.0331 14.771 36.0938 14.4073L36.2983 13.18C36.2301 13.2482 36.0956 13.3107 35.8949 13.3675C35.6941 13.4206 35.4669 13.4679 35.2131 13.5096C34.9631 13.5475 34.7188 13.5816 34.4801 13.6119C34.2453 13.6384 34.0559 13.6611 33.9119 13.68C33.5559 13.7255 33.2169 13.7994 32.8949 13.9016C32.5767 14.0001 32.3078 14.1497 32.0881 14.3505C31.8722 14.5475 31.7377 14.8164 31.6847 15.1573C31.6051 15.6232 31.7169 15.9755 32.0199 16.2141C32.3229 16.449 32.7415 16.5664 33.2756 16.5664ZM39.5412 17.5664L41.473 5.93004H42.8139L42.1094 10.2255H42.223C42.3442 10.074 42.5128 9.8808 42.7287 9.64595C42.9446 9.40732 43.2344 9.19519 43.598 9.00959C43.9616 8.82019 44.4276 8.7255 44.9957 8.7255C45.7306 8.7255 46.3461 8.90921 46.8423 9.27663C47.3423 9.64406 47.6927 10.1649 47.8935 10.8391C48.098 11.5134 48.1245 12.3088 47.973 13.2255C47.8215 14.1497 47.5317 14.9509 47.1037 15.6289C46.6795 16.3031 46.1567 16.8259 45.5355 17.1971C44.9181 17.5645 44.2457 17.7482 43.5185 17.7482C42.9579 17.7482 42.5241 17.6554 42.2173 17.4698C41.9143 17.2804 41.6908 17.0664 41.5469 16.8278C41.4067 16.5853 41.2988 16.3846 41.223 16.2255H41.0639L40.8366 17.5664H39.5412ZM41.5866 13.2028C41.4806 13.8619 41.4825 14.4433 41.5923 14.9471C41.7022 15.4471 41.92 15.8391 42.2457 16.1232C42.5715 16.4035 43.0033 16.5437 43.5412 16.5437C44.1018 16.5437 44.5942 16.396 45.0185 16.1005C45.4427 15.8013 45.7912 15.3997 46.0639 14.896C46.3366 14.3884 46.526 13.824 46.6321 13.2028C46.7306 12.5891 46.7268 12.0361 46.6207 11.5437C46.5185 11.0475 46.3026 10.6554 45.973 10.3675C45.6473 10.0759 45.2003 9.93004 44.6321 9.93004C44.0866 9.93004 43.6037 10.0683 43.1832 10.3448C42.7666 10.6175 42.4219 11.0001 42.1491 11.4925C41.8802 11.9812 41.6927 12.5513 41.5866 13.2028ZM51.8423 17.771C51.2893 17.771 50.8045 17.6668 50.3878 17.4585C49.9711 17.2463 49.6624 16.9414 49.4616 16.5437C49.2609 16.1422 49.206 15.6573 49.2969 15.0891C49.384 14.5891 49.5526 14.1838 49.8026 13.8732C50.0526 13.5588 50.3556 13.3126 50.7116 13.1346C51.0715 12.9528 51.4579 12.8183 51.8707 12.7312C52.2874 12.6403 52.7022 12.5702 53.1151 12.521C53.6529 12.4528 54.0904 12.3997 54.4276 12.3619C54.7647 12.324 55.0185 12.2615 55.1889 12.1744C55.3594 12.0872 55.4635 11.9376 55.5014 11.7255V11.68C55.5923 11.1232 55.5185 10.6895 55.2798 10.3789C55.0412 10.0645 54.6151 9.90732 54.0014 9.90732C53.3651 9.90732 52.8329 10.0475 52.4048 10.3278C51.9768 10.6081 51.6605 10.9073 51.456 11.2255L50.2741 10.771C50.5848 10.2406 50.956 9.82777 51.3878 9.53232C51.8196 9.23307 52.2723 9.02474 52.7457 8.90732C53.2192 8.7861 53.6757 8.7255 54.1151 8.7255C54.3954 8.7255 54.7116 8.75959 55.0639 8.82777C55.4162 8.89216 55.7457 9.02663 56.0526 9.23118C56.3632 9.43572 56.5961 9.74444 56.7514 10.1573C56.9105 10.5702 56.9332 11.1232 56.8196 11.8164L55.8651 17.5664H54.5241L54.7287 16.3846H54.6605C54.5393 16.574 54.3537 16.7766 54.1037 16.9925C53.8575 17.2085 53.545 17.3922 53.1662 17.5437C52.7912 17.6952 52.3499 17.771 51.8423 17.771ZM52.2287 16.5664C52.759 16.5664 53.223 16.4622 53.6207 16.2539C54.0223 16.0456 54.3442 15.7766 54.5866 15.4471C54.8329 15.1175 54.9863 14.771 55.0469 14.4073L55.2514 13.18C55.1832 13.2482 55.0488 13.3107 54.848 13.3675C54.6473 13.4206 54.42 13.4679 54.1662 13.5096C53.9162 13.5475 53.6719 13.5816 53.4332 13.6119C53.1984 13.6384 53.009 13.6611 52.8651 13.68C52.509 13.7255 52.17 13.7994 51.848 13.9016C51.5298 14.0001 51.2609 14.1497 51.0412 14.3505C50.8253 14.5475 50.6908 14.8164 50.6378 15.1573C50.5582 15.6232 50.67 15.9755 50.973 16.2141C51.276 16.449 51.6946 16.5664 52.2287 16.5664ZM58.3125 17.5664L59.767 8.83913H61.0625L60.8352 10.1573H60.9261C61.1534 9.7255 61.5 9.37512 61.9659 9.10618C62.4318 8.83724 62.9261 8.70277 63.4489 8.70277C63.5511 8.70277 63.6742 8.70466 63.8182 8.70845C63.9621 8.70845 64.0739 8.71413 64.1534 8.7255L63.9261 10.0891C63.8807 10.0778 63.7784 10.0607 63.6193 10.038C63.4602 10.0115 63.2898 9.99822 63.108 9.99822C62.6837 9.99822 62.2917 10.0872 61.9318 10.2653C61.572 10.4395 61.2708 10.6819 61.0284 10.9925C60.786 11.2994 60.6307 11.6497 60.5625 12.0437L59.6534 17.5664H58.3125Z" fill="white"/>
<g filter="url(#filter0_b_170_5751)">
<path d="M0 24.0664H457C462.523 24.0664 467 28.5436 467 34.0664V98.0664C467 103.589 462.523 108.066 457 108.066H10C4.47715 108.066 0 103.589 0 98.0664V24.0664Z" fill="white" fill-opacity="0.2"/>
<rect x="10" y="44.9395" width="3.96094" height="42.2539" rx="1.98047" fill="#059B36"/>
<path d="M29.5348 62.0664H25.6996V48.9755H29.7649C31.0135 48.9755 32.081 49.2354 32.9673 49.7553C33.858 50.2752 34.5398 51.021 35.0128 51.9925C35.4858 52.9641 35.7223 54.1296 35.7223 55.489C35.7223 56.8612 35.4794 58.0394 34.9936 59.0238C34.5121 60.0039 33.8089 60.756 32.8842 61.2802C31.9638 61.8043 30.8473 62.0664 29.5348 62.0664ZM26.8949 60.9925H29.4645C30.5895 60.9925 31.5313 60.771 32.2898 60.3278C33.0483 59.8846 33.6172 59.2518 33.9964 58.4293C34.3757 57.6069 34.5653 56.6268 34.5653 55.489C34.5611 54.3597 34.3736 53.3881 34.0028 52.5742C33.6364 51.7603 33.0909 51.136 32.3665 50.7013C31.6463 50.2667 30.7557 50.0494 29.6946 50.0494H26.8949V60.9925ZM41.1252 62.2901C40.5328 62.2901 39.9917 62.1751 39.5016 61.945C39.0115 61.7106 38.6216 61.3739 38.3319 60.935C38.0421 60.4918 37.8972 59.9549 37.8972 59.3242C37.8972 58.8384 37.9888 58.4293 38.1721 58.0969C38.3553 57.7646 38.6152 57.4918 38.9519 57.2788C39.2885 57.0657 39.687 56.8974 40.1472 56.7738C40.6074 56.6502 41.1145 56.5543 41.6685 56.4862C42.2182 56.418 42.6827 56.3583 43.062 56.3072C43.4455 56.256 43.7374 56.1751 43.9377 56.0643C44.138 55.9535 44.2381 55.7745 44.2381 55.5273V55.2972C44.2381 54.6282 44.0378 54.1019 43.6373 53.7184C43.2409 53.3306 42.6699 53.1367 41.9242 53.1367C41.2168 53.1367 40.6394 53.2923 40.1919 53.6033C39.7488 53.9144 39.4377 54.2809 39.2587 54.7028L38.1784 54.3129C38.4 53.7759 38.7069 53.3477 39.0989 53.0281C39.4909 52.7042 39.9299 52.4719 40.4157 52.3313C40.9015 52.1864 41.3936 52.114 41.8922 52.114C42.2672 52.114 42.6571 52.163 43.062 52.261C43.4711 52.359 43.8503 52.5295 44.1998 52.7724C44.5492 53.011 44.8326 53.3455 45.0499 53.7759C45.2672 54.2021 45.3759 54.7433 45.3759 55.3995V62.0664H44.2381V60.5131H44.1678C44.0314 60.8029 43.829 61.0842 43.5605 61.3569C43.2921 61.6296 42.9554 61.8533 42.5506 62.0281C42.1458 62.2028 41.6706 62.2901 41.1252 62.2901ZM41.2786 61.2482C41.8837 61.2482 42.4078 61.114 42.851 60.8455C43.2942 60.5771 43.6351 60.2212 43.8738 59.7781C44.1167 59.3306 44.2381 58.8384 44.2381 58.3015V56.8825C44.1529 56.9634 44.0101 57.0359 43.8098 57.0998C43.6138 57.1637 43.3858 57.2212 43.1259 57.2724C42.8702 57.3192 42.6145 57.3597 42.3588 57.3938C42.1032 57.4279 41.873 57.4577 41.6685 57.4833C41.1145 57.5515 40.6415 57.658 40.2495 57.8029C39.8574 57.9478 39.557 58.1481 39.3482 58.4038C39.1394 58.6552 39.035 58.979 39.035 59.3754C39.035 59.9719 39.248 60.4343 39.6742 60.7624C40.1003 61.0863 40.6351 61.2482 41.2786 61.2482ZM54.9991 54.4023L53.9572 54.6964C53.8549 54.4023 53.7101 54.136 53.5226 53.8974C53.3351 53.6587 53.09 53.4691 52.7875 53.3285C52.4892 53.1879 52.1184 53.1175 51.6752 53.1175C51.0105 53.1175 50.465 53.2752 50.0389 53.5906C49.6127 53.9059 49.3997 54.3129 49.3997 54.8114C49.3997 55.2333 49.5446 55.5763 49.8343 55.8406C50.1284 56.1005 50.5801 56.3072 51.1895 56.4606L52.6724 56.8249C53.4949 57.0252 54.1106 57.3427 54.5197 57.7773C54.9331 58.212 55.1397 58.7575 55.1397 59.4137C55.1397 59.9677 54.9863 60.4599 54.6795 60.8903C54.3727 61.3207 53.9444 61.6594 53.3947 61.9066C52.8493 62.1495 52.2164 62.271 51.4963 62.271C50.5375 62.271 49.747 62.0558 49.1248 61.6254C48.5027 61.1907 48.1042 60.5643 47.9295 59.7461L49.0225 59.4776C49.1632 60.0614 49.438 60.5025 49.8471 60.8008C50.2605 61.0991 50.8038 61.2482 51.4771 61.2482C52.2314 61.2482 52.8343 61.0799 53.286 60.7433C53.7377 60.4023 53.9636 59.9762 53.9636 59.4648C53.9636 59.0685 53.8315 58.7362 53.5673 58.4677C53.3031 58.195 52.9025 57.9947 52.3656 57.8668L50.7612 57.4833C49.9089 57.2788 49.2782 56.9549 48.8691 56.5117C48.46 56.0685 48.2555 55.5188 48.2555 54.8626C48.2555 54.3214 48.4025 53.8462 48.6966 53.4371C48.9906 53.0238 49.3954 52.6999 49.911 52.4656C50.4267 52.2312 51.0147 52.114 51.6752 52.114C52.5744 52.114 53.2924 52.3185 53.8294 52.7276C54.3706 53.1325 54.7605 53.6907 54.9991 54.4023ZM51.0744 62.0153H52.046L51.9501 62.5266C52.3166 62.582 52.6277 62.729 52.8833 62.9677C53.1433 63.2106 53.2754 63.5643 53.2797 64.0288C53.2754 64.5444 53.073 64.9535 52.6724 65.256C52.2761 65.5586 51.6902 65.7141 50.9146 65.7227L50.8762 64.9237C51.2981 64.9151 51.6305 64.8427 51.8734 64.7063C52.1163 64.5742 52.2377 64.359 52.2377 64.0607C52.2377 63.7411 52.1248 63.5153 51.899 63.3832C51.6774 63.2511 51.3258 63.1722 50.8443 63.1467L51.0744 62.0153ZM61.4471 62.271C60.5991 62.271 59.8491 62.0558 59.1971 61.6254C58.5494 61.195 58.0423 60.6005 57.6758 59.842C57.3093 59.0792 57.1261 58.1992 57.1261 57.2021C57.1261 56.1964 57.3093 55.3121 57.6758 54.5494C58.0423 53.7823 58.5494 53.1857 59.1971 52.7596C59.8491 52.3292 60.5991 52.114 61.4471 52.114C62.2951 52.114 63.043 52.3292 63.6907 52.7596C64.3384 53.19 64.8455 53.7866 65.212 54.5494C65.5827 55.3121 65.7681 56.1964 65.7681 57.2021C65.7681 58.1992 65.5849 59.0792 65.2184 59.842C64.8519 60.6005 64.3427 61.195 63.6907 61.6254C63.043 62.0558 62.2951 62.271 61.4471 62.271ZM61.4471 61.229C62.1289 61.229 62.7063 61.0458 63.1793 60.6793C63.6523 60.3129 64.0103 59.8249 64.2532 59.2156C64.5004 58.6062 64.6239 57.935 64.6239 57.2021C64.6239 56.4691 64.5004 55.7958 64.2532 55.1822C64.0103 54.5685 63.6523 54.0763 63.1793 53.7056C62.7063 53.3349 62.1289 53.1495 61.4471 53.1495C60.7695 53.1495 60.1921 53.3349 59.7148 53.7056C59.2418 54.0763 58.8817 54.5685 58.6346 55.1822C58.3917 55.7958 58.2702 56.4691 58.2702 57.2021C58.2702 57.935 58.3917 58.6062 58.6346 59.2156C58.8817 59.8249 59.2418 60.3129 59.7148 60.6793C60.1879 61.0458 60.7653 61.229 61.4471 61.229ZM72.0115 65.9528C71.3425 65.9528 70.7566 65.8654 70.2537 65.6907C69.7509 65.5202 69.3269 65.2859 68.9817 64.9876C68.6365 64.6893 68.3681 64.3548 68.1763 63.984L69.1096 63.3704C69.2502 63.6175 69.4377 63.8604 69.6721 64.0991C69.9107 64.3377 70.2196 64.5359 70.5989 64.6935C70.9824 64.8512 71.4533 64.93 72.0115 64.93C72.8809 64.93 73.5819 64.7127 74.1145 64.2781C74.6515 63.8434 74.9199 63.168 74.9199 62.2518V60.0401H74.8176C74.6855 60.3384 74.4959 60.6367 74.2488 60.935C74.0016 61.229 73.6777 61.4741 73.2772 61.6701C72.8809 61.8661 72.3887 61.9641 71.8006 61.9641C71.0165 61.9641 70.3198 61.7702 69.7104 61.3825C69.1053 60.9947 68.628 60.4407 68.2786 59.7205C67.9334 58.9961 67.7608 58.1332 67.7608 57.1317C67.7608 56.1388 67.9292 55.2653 68.2658 54.511C68.6067 53.7567 69.0819 53.1687 69.6912 52.7468C70.3006 52.3249 71.0101 52.114 71.8198 52.114C72.4206 52.114 72.9192 52.2205 73.3155 52.4336C73.7118 52.6424 74.0293 52.9023 74.2679 53.2134C74.5108 53.5245 74.7005 53.8271 74.8368 54.1211H74.9519V52.2482H76.0641V62.3221C76.0641 63.1531 75.8873 63.837 75.5336 64.3739C75.1799 64.9109 74.6983 65.3072 74.089 65.5629C73.4796 65.8228 72.7871 65.9528 72.0115 65.9528ZM71.9348 60.9222C72.5655 60.9222 73.1046 60.771 73.552 60.4684C73.9995 60.1616 74.3425 59.7227 74.5811 59.1516C74.8198 58.5806 74.9391 57.9009 74.9391 57.1126C74.9391 56.3455 74.8219 55.6658 74.5875 55.0735C74.3532 54.4769 74.0123 54.0082 73.5648 53.6673C73.1216 53.3221 72.5783 53.1495 71.9348 53.1495C71.2786 53.1495 70.7246 53.3263 70.2729 53.68C69.8212 54.0337 69.4803 54.511 69.2502 55.1119C69.0201 55.7085 68.905 56.3754 68.905 57.1126C68.905 57.8626 69.0222 58.5252 69.2566 59.1005C69.4909 59.6715 69.834 60.119 70.2857 60.4428C70.7374 60.7624 71.2871 60.9222 71.9348 60.9222ZM85.315 58.3143V52.2482H86.4528V62.0664H85.315V60.4364H85.2255C84.9954 60.9393 84.631 61.359 84.1325 61.6957C83.6339 62.0281 83.0245 62.1942 82.3043 62.1942C81.6779 62.1942 81.1218 62.0579 80.636 61.7852C80.1502 61.5082 79.7688 61.1033 79.4918 60.5707C79.2148 60.038 79.0763 59.3839 79.0763 58.6083V52.2482H80.2141V58.538C80.2141 59.305 80.44 59.9229 80.8917 60.3917C81.3434 60.8562 81.9229 61.0884 82.6303 61.0884C83.0735 61.0884 83.4996 60.9819 83.9087 60.7688C84.3178 60.5558 84.6545 60.2447 84.9187 59.8356C85.1829 59.4222 85.315 58.9151 85.315 58.3143ZM89.1582 62.0664V61.1651L94.8343 53.4052V53.3221H89.4011V52.2482H96.2981V53.1879L90.7243 60.9094V60.9925H96.5027V62.0664H89.1582ZM106.252 62.0664L103.286 52.2482H104.488L106.815 60.3469H106.898L109.218 52.2482H110.426L112.727 60.3278H112.817L115.143 52.2482H116.345L113.379 62.0664H112.203L109.876 54.0188H109.755L107.428 62.0664H106.252ZM122.192 62.271C121.276 62.271 120.483 62.0579 119.814 61.6317C119.145 61.2013 118.628 60.6069 118.261 59.8484C117.899 59.0856 117.718 58.2077 117.718 57.2148C117.718 56.2262 117.899 55.3484 118.261 54.5813C118.628 53.81 119.133 53.207 119.776 52.7724C120.424 52.3335 121.172 52.114 122.02 52.114C122.552 52.114 123.066 52.212 123.56 52.408C124.055 52.5998 124.498 52.896 124.89 53.2965C125.286 53.6928 125.599 54.1935 125.829 54.7987C126.059 55.3995 126.175 56.1112 126.175 56.9336V57.4961H118.504V56.4925H125.011C125.011 55.8619 124.883 55.2951 124.628 54.7923C124.376 54.2852 124.025 53.8846 123.573 53.5906C123.126 53.2965 122.608 53.1495 122.02 53.1495C121.398 53.1495 120.85 53.3157 120.377 53.6481C119.904 53.9805 119.533 54.4194 119.265 54.9648C119.001 55.5103 118.866 56.1069 118.862 56.7546V57.3555C118.862 58.1353 118.996 58.8171 119.265 59.4009C119.537 59.9805 119.923 60.43 120.422 60.7496C120.92 61.0692 121.51 61.229 122.192 61.229C122.657 61.229 123.064 61.1566 123.413 61.0117C123.767 60.8668 124.063 60.6729 124.302 60.43C124.545 60.1829 124.728 59.9123 124.851 59.6183L125.932 59.9698C125.782 60.3832 125.537 60.7646 125.197 61.114C124.86 61.4634 124.438 61.7447 123.931 61.9577C123.428 62.1665 122.849 62.271 122.192 62.271ZM129.82 48.9755V62.0664H128.682V48.9755H129.82ZM135.572 62.2901C134.98 62.2901 134.439 62.1751 133.949 61.945C133.459 61.7106 133.069 61.3739 132.779 60.935C132.489 60.4918 132.344 59.9549 132.344 59.3242C132.344 58.8384 132.436 58.4293 132.619 58.0969C132.803 57.7646 133.063 57.4918 133.399 57.2788C133.736 57.0657 134.134 56.8974 134.594 56.7738C135.055 56.6502 135.562 56.5543 136.116 56.4862C136.665 56.418 137.13 56.3583 137.509 56.3072C137.893 56.256 138.185 56.1751 138.385 56.0643C138.585 55.9535 138.685 55.7745 138.685 55.5273V55.2972C138.685 54.6282 138.485 54.1019 138.085 53.7184C137.688 53.3306 137.117 53.1367 136.371 53.1367C135.664 53.1367 135.087 53.2923 134.639 53.6033C134.196 53.9144 133.885 54.2809 133.706 54.7028L132.626 54.3129C132.847 53.7759 133.154 53.3477 133.546 53.0281C133.938 52.7042 134.377 52.4719 134.863 52.3313C135.349 52.1864 135.841 52.114 136.339 52.114C136.714 52.114 137.104 52.163 137.509 52.261C137.918 52.359 138.298 52.5295 138.647 52.7724C138.996 53.011 139.28 53.3455 139.497 53.7759C139.714 54.2021 139.823 54.7433 139.823 55.3995V62.0664H138.685V60.5131H138.615C138.479 60.8029 138.276 61.0842 138.008 61.3569C137.739 61.6296 137.403 61.8533 136.998 62.0281C136.593 62.2028 136.118 62.2901 135.572 62.2901ZM135.726 61.2482C136.331 61.2482 136.855 61.114 137.298 60.8455C137.741 60.5771 138.082 60.2212 138.321 59.7781C138.564 59.3306 138.685 58.8384 138.685 58.3015V56.8825C138.6 56.9634 138.457 57.0359 138.257 57.0998C138.061 57.1637 137.833 57.2212 137.573 57.2724C137.317 57.3192 137.062 57.3597 136.806 57.3938C136.55 57.4279 136.32 57.4577 136.116 57.4833C135.562 57.5515 135.089 57.658 134.697 57.8029C134.305 57.9478 134.004 58.1481 133.795 58.4038C133.587 58.6552 133.482 58.979 133.482 59.3754C133.482 59.9719 133.695 60.4343 134.121 60.7624C134.548 61.0863 135.082 61.2482 135.726 61.2482ZM143.291 65.7482C143.065 65.7482 142.854 65.7269 142.658 65.6843C142.462 65.6417 142.306 65.5948 142.191 65.5437L142.498 64.5401C142.886 64.6594 143.231 64.7021 143.534 64.668C143.836 64.6381 144.105 64.5018 144.339 64.2589C144.574 64.0202 144.782 63.6538 144.966 63.1594L145.324 62.1623L141.712 52.2482H142.946L145.86 60.5643H145.95L148.865 52.2482H150.098L145.944 63.6197C145.769 64.0927 145.554 64.4869 145.298 64.8022C145.042 65.1218 144.746 65.3583 144.409 65.5117C144.077 65.6694 143.704 65.7482 143.291 65.7482ZM145.375 50.8867L147.011 47.9847H148.36L146.397 50.8867H145.375ZM154.768 62.2901C154.175 62.2901 153.634 62.1751 153.144 61.945C152.654 61.7106 152.264 61.3739 151.974 60.935C151.685 60.4918 151.54 59.9549 151.54 59.3242C151.54 58.8384 151.631 58.4293 151.815 58.0969C151.998 57.7646 152.258 57.4918 152.594 57.2788C152.931 57.0657 153.33 56.8974 153.79 56.7738C154.25 56.6502 154.757 56.5543 155.311 56.4862C155.861 56.418 156.325 56.3583 156.705 56.3072C157.088 56.256 157.38 56.1751 157.58 56.0643C157.781 55.9535 157.881 55.7745 157.881 55.5273V55.2972C157.881 54.6282 157.68 54.1019 157.28 53.7184C156.884 53.3306 156.313 53.1367 155.567 53.1367C154.859 53.1367 154.282 53.2923 153.835 53.6033C153.391 53.9144 153.08 54.2809 152.901 54.7028L151.821 54.3129C152.043 53.7759 152.349 53.3477 152.741 53.0281C153.134 52.7042 153.572 52.4719 154.058 52.3313C154.544 52.1864 155.036 52.114 155.535 52.114C155.91 52.114 156.3 52.163 156.705 52.261C157.114 52.359 157.493 52.5295 157.842 52.7724C158.192 53.011 158.475 53.3455 158.692 53.7759C158.91 54.2021 159.018 54.7433 159.018 55.3995V62.0664H157.881V60.5131H157.81C157.674 60.8029 157.472 61.0842 157.203 61.3569C156.935 61.6296 156.598 61.8533 156.193 62.0281C155.788 62.2028 155.313 62.2901 154.768 62.2901ZM154.921 61.2482C155.526 61.2482 156.05 61.114 156.494 60.8455C156.937 60.5771 157.278 60.2212 157.516 59.7781C157.759 59.3306 157.881 58.8384 157.881 58.3015V56.8825C157.795 56.9634 157.653 57.0359 157.452 57.0998C157.256 57.1637 157.028 57.2212 156.768 57.2724C156.513 57.3192 156.257 57.3597 156.001 57.3938C155.746 57.4279 155.516 57.4577 155.311 57.4833C154.757 57.5515 154.284 57.658 153.892 57.8029C153.5 57.9478 153.2 58.1481 152.991 58.4038C152.782 58.6552 152.678 58.979 152.678 59.3754C152.678 59.9719 152.891 60.4343 153.317 60.7624C153.743 61.0863 154.278 61.2482 154.921 61.2482ZM165.912 52.2482V53.239H161.227V52.2482H165.912ZM162.691 49.896H163.835V59.5032C163.835 59.9123 163.905 60.234 164.046 60.4684C164.186 60.6985 164.37 60.8626 164.596 60.9606C164.821 61.0543 165.062 61.1012 165.318 61.1012C165.467 61.1012 165.595 61.0927 165.701 61.0756C165.808 61.0543 165.902 61.033 165.983 61.0117L166.225 62.0408C166.115 62.0835 165.978 62.1218 165.816 62.1559C165.654 62.1942 165.454 62.2134 165.216 62.2134C164.798 62.2134 164.395 62.1218 164.007 61.9386C163.624 61.7553 163.309 61.4826 163.061 61.1204C162.814 60.7582 162.691 60.3086 162.691 59.7717V49.896ZM169.289 65.7482C169.063 65.7482 168.852 65.7269 168.656 65.6843C168.46 65.6417 168.305 65.5948 168.189 65.5437L168.496 64.5401C168.884 64.6594 169.229 64.7021 169.532 64.668C169.834 64.6381 170.103 64.5018 170.337 64.2589C170.572 64.0202 170.78 63.6538 170.964 63.1594L171.322 62.1623L167.71 52.2482H168.944L171.858 60.5643H171.948L174.863 52.2482H176.096L171.942 63.6197C171.767 64.0927 171.552 64.4869 171.296 64.8022C171.04 65.1218 170.744 65.3583 170.407 65.5117C170.075 65.6694 169.702 65.7482 169.289 65.7482ZM179.46 55.93V62.0664H178.322V52.2482H179.428V53.7887H179.531C179.761 53.2859 180.119 52.8832 180.604 52.5806C181.094 52.2738 181.7 52.1204 182.42 52.1204C183.08 52.1204 183.66 52.2589 184.158 52.5359C184.661 52.8086 185.051 53.2113 185.328 53.744C185.609 54.2766 185.75 54.9308 185.75 55.7063V62.0664H184.612V55.7766C184.612 54.9712 184.386 54.3342 183.935 53.8654C183.487 53.3967 182.886 53.1623 182.132 53.1623C181.616 53.1623 181.158 53.2731 180.758 53.4947C180.357 53.7163 180.04 54.0359 179.805 54.4535C179.575 54.8668 179.46 55.359 179.46 55.93ZM189.187 65.7482C188.961 65.7482 188.751 65.7269 188.555 65.6843C188.358 65.6417 188.203 65.5948 188.088 65.5437L188.395 64.5401C188.782 64.6594 189.128 64.7021 189.43 64.668C189.733 64.6381 190.001 64.5018 190.236 64.2589C190.47 64.0202 190.679 63.6538 190.862 63.1594L191.22 62.1623L187.608 52.2482H188.842L191.757 60.5643H191.846L194.761 52.2482H195.995L191.84 63.6197C191.665 64.0927 191.45 64.4869 191.194 64.8022C190.939 65.1218 190.643 65.3583 190.306 65.5117C189.974 65.6694 189.601 65.7482 189.187 65.7482ZM199.359 55.93V62.0664H198.221V52.2482H199.327V53.7887H199.429C199.659 53.2859 200.017 52.8832 200.503 52.5806C200.993 52.2738 201.598 52.1204 202.318 52.1204C202.979 52.1204 203.558 52.2589 204.057 52.5359C204.56 52.8086 204.95 53.2113 205.227 53.744C205.508 54.2766 205.648 54.9308 205.648 55.7063V62.0664H204.511V55.7766C204.511 54.9712 204.285 54.3342 203.833 53.8654C203.386 53.3967 202.785 53.1623 202.031 53.1623C201.515 53.1623 201.057 53.2731 200.656 53.4947C200.256 53.7163 199.938 54.0359 199.704 54.4535C199.474 54.8668 199.359 55.359 199.359 55.93ZM200.413 48.3491L201.941 50.2028L203.469 48.3491H204.581V48.4386L202.42 51.0082H201.462L199.301 48.4386V48.3491H200.413ZM213.72 62.0664V52.2482H214.864V62.0664H213.72ZM214.302 50.5607C214.067 50.5607 213.867 50.4819 213.701 50.3242C213.535 50.1623 213.452 49.9684 213.452 49.7425C213.452 49.5167 213.535 49.3249 213.701 49.1673C213.867 49.0053 214.067 48.9244 214.302 48.9244C214.536 48.9244 214.736 49.0053 214.903 49.1673C215.069 49.3249 215.152 49.5167 215.152 49.7425C215.152 49.9684 215.069 50.1623 214.903 50.3242C214.736 50.4819 214.536 50.5607 214.302 50.5607ZM219.011 48.9755V62.0664H217.873V48.9755H219.011ZM224.764 62.2901C224.172 62.2901 223.63 62.1751 223.14 61.945C222.65 61.7106 222.26 61.3739 221.971 60.935C221.681 60.4918 221.536 59.9549 221.536 59.3242C221.536 58.8384 221.627 58.4293 221.811 58.0969C221.994 57.7646 222.254 57.4918 222.591 57.2788C222.927 57.0657 223.326 56.8974 223.786 56.7738C224.246 56.6502 224.753 56.5543 225.307 56.4862C225.857 56.418 226.321 56.3583 226.701 56.3072C227.084 56.256 227.376 56.1751 227.576 56.0643C227.777 55.9535 227.877 55.7745 227.877 55.5273V55.2972C227.877 54.6282 227.676 54.1019 227.276 53.7184C226.88 53.3306 226.309 53.1367 225.563 53.1367C224.855 53.1367 224.278 53.2923 223.831 53.6033C223.387 53.9144 223.076 54.2809 222.897 54.7028L221.817 54.3129C222.039 53.7759 222.346 53.3477 222.738 53.0281C223.13 52.7042 223.569 52.4719 224.054 52.3313C224.54 52.1864 225.032 52.114 225.531 52.114C225.906 52.114 226.296 52.163 226.701 52.261C227.11 52.359 227.489 52.5295 227.838 52.7724C228.188 53.011 228.471 53.3455 228.689 53.7759C228.906 54.2021 229.015 54.7433 229.015 55.3995V62.0664H227.877V60.5131H227.806C227.67 60.8029 227.468 61.0842 227.199 61.3569C226.931 61.6296 226.594 61.8533 226.189 62.0281C225.784 62.2028 225.309 62.2901 224.764 62.2901ZM224.917 61.2482C225.522 61.2482 226.047 61.114 226.49 60.8455C226.933 60.5771 227.274 60.2212 227.512 59.7781C227.755 59.3306 227.877 58.8384 227.877 58.3015V56.8825C227.792 56.9634 227.649 57.0359 227.449 57.0998C227.252 57.1637 227.025 57.2212 226.765 57.2724C226.509 57.3192 226.253 57.3597 225.998 57.3938C225.742 57.4279 225.512 57.4577 225.307 57.4833C224.753 57.5515 224.28 57.658 223.888 57.8029C223.496 57.9478 223.196 58.1481 222.987 58.4038C222.778 58.6552 222.674 58.979 222.674 59.3754C222.674 59.9719 222.887 60.4343 223.313 60.7624C223.739 61.0863 224.274 61.2482 224.917 61.2482ZM235.908 52.2482V53.239H231.223V52.2482H235.908ZM232.687 49.896H233.831V59.5032C233.831 59.9123 233.901 60.234 234.042 60.4684C234.183 60.6985 234.366 60.8626 234.592 60.9606C234.817 61.0543 235.058 61.1012 235.314 61.1012C235.463 61.1012 235.591 61.0927 235.697 61.0756C235.804 61.0543 235.898 61.033 235.979 61.0117L236.222 62.0408C236.111 62.0835 235.974 62.1218 235.812 62.1559C235.651 62.1942 235.45 62.2134 235.212 62.2134C234.794 62.2134 234.391 62.1218 234.004 61.9386C233.62 61.7553 233.305 61.4826 233.058 61.1204C232.81 60.7582 232.687 60.3086 232.687 59.7717V49.896ZM239.285 65.7482C239.059 65.7482 238.848 65.7269 238.652 65.6843C238.456 65.6417 238.301 65.5948 238.186 65.5437L238.492 64.5401C238.88 64.6594 239.225 64.7021 239.528 64.668C239.83 64.6381 240.099 64.5018 240.333 64.2589C240.568 64.0202 240.776 63.6538 240.96 63.1594L241.318 62.1623L237.706 52.2482H238.94L241.855 60.5643H241.944L244.859 52.2482H246.093L241.938 63.6197C241.763 64.0927 241.548 64.4869 241.292 64.8022C241.036 65.1218 240.74 65.3583 240.404 65.5117C240.071 65.6694 239.698 65.7482 239.285 65.7482ZM249.456 55.93V62.0664H248.319V52.2482H249.424V53.7887H249.527C249.757 53.2859 250.115 52.8832 250.6 52.5806C251.091 52.2738 251.696 52.1204 252.416 52.1204C253.076 52.1204 253.656 52.2589 254.154 52.5359C254.657 52.8086 255.047 53.2113 255.324 53.744C255.605 54.2766 255.746 54.9308 255.746 55.7063V62.0664H254.608V55.7766C254.608 54.9712 254.382 54.3342 253.931 53.8654C253.483 53.3967 252.882 53.1623 252.128 53.1623C251.613 53.1623 251.154 53.2731 250.754 53.4947C250.353 53.7163 250.036 54.0359 249.801 54.4535C249.571 54.8668 249.456 55.359 249.456 55.93ZM261.485 62.2901C260.892 62.2901 260.351 62.1751 259.861 61.945C259.371 61.7106 258.981 61.3739 258.691 60.935C258.401 60.4918 258.257 59.9549 258.257 59.3242C258.257 58.8384 258.348 58.4293 258.531 58.0969C258.715 57.7646 258.975 57.4918 259.311 57.2788C259.648 57.0657 260.046 56.8974 260.507 56.7738C260.967 56.6502 261.474 56.5543 262.028 56.4862C262.578 56.418 263.042 56.3583 263.421 56.3072C263.805 56.256 264.097 56.1751 264.297 56.0643C264.497 55.9535 264.597 55.7745 264.597 55.5273V55.2972C264.597 54.6282 264.397 54.1019 263.997 53.7184C263.6 53.3306 263.029 53.1367 262.284 53.1367C261.576 53.1367 260.999 53.2923 260.551 53.6033C260.108 53.9144 259.797 54.2809 259.618 54.7028L258.538 54.3129C258.759 53.7759 259.066 53.3477 259.458 53.0281C259.85 52.7042 260.289 52.4719 260.775 52.3313C261.261 52.1864 261.753 52.114 262.252 52.114C262.627 52.114 263.017 52.163 263.421 52.261C263.83 52.359 264.21 52.5295 264.559 52.7724C264.909 53.011 265.192 53.3455 265.409 53.7759C265.627 54.2021 265.735 54.7433 265.735 55.3995V62.0664H264.597V60.5131H264.527C264.391 60.8029 264.188 61.0842 263.92 61.3569C263.651 61.6296 263.315 61.8533 262.91 62.0281C262.505 62.2028 262.03 62.2901 261.485 62.2901ZM261.638 61.2482C262.243 61.2482 262.767 61.114 263.21 60.8455C263.654 60.5771 263.994 60.2212 264.233 59.7781C264.476 59.3306 264.597 58.8384 264.597 58.3015V56.8825C264.512 56.9634 264.369 57.0359 264.169 57.0998C263.973 57.1637 263.745 57.2212 263.485 57.2724C263.23 57.3192 262.974 57.3597 262.718 57.3938C262.463 57.4279 262.232 57.4577 262.028 57.4833C261.474 57.5515 261.001 57.658 260.609 57.8029C260.217 57.9478 259.916 58.1481 259.708 58.4038C259.499 58.6552 259.394 58.979 259.394 59.3754C259.394 59.9719 259.607 60.4343 260.034 60.7624C260.46 61.0863 260.994 61.2482 261.638 61.2482ZM277.359 62.271C276.554 62.271 275.849 62.0579 275.243 61.6317C274.638 61.2056 274.165 60.6112 273.824 59.8484C273.488 59.0856 273.319 58.1971 273.319 57.1829C273.319 56.1729 273.488 55.2887 273.824 54.5302C274.165 53.7674 274.64 53.1751 275.25 52.7532C275.859 52.3271 276.569 52.114 277.378 52.114C277.975 52.114 278.471 52.2205 278.868 52.4336C279.264 52.6424 279.581 52.9023 279.82 53.2134C280.059 53.5245 280.244 53.8271 280.376 54.1211H280.479V48.9755H281.623V62.0664H280.51V60.2447H280.376C280.244 60.543 280.057 60.8498 279.814 61.1651C279.571 61.4762 279.249 61.7383 278.849 61.9513C278.452 62.1644 277.956 62.271 277.359 62.271ZM277.493 61.229C278.128 61.229 278.67 61.0565 279.117 60.7113C279.564 60.3619 279.905 59.8825 280.14 59.2731C280.378 58.6594 280.498 57.9563 280.498 57.1637C280.498 56.3796 280.381 55.6871 280.146 55.0863C279.912 54.4812 279.571 54.0082 279.123 53.6673C278.676 53.3221 278.133 53.1495 277.493 53.1495C276.837 53.1495 276.283 53.3285 275.831 53.6864C275.384 54.0401 275.043 54.5195 274.809 55.1246C274.579 55.7298 274.464 56.4094 274.464 57.1637C274.464 57.9265 274.581 58.6147 274.815 59.2283C275.05 59.842 275.39 60.3299 275.838 60.6921C276.29 61.0501 276.841 61.229 277.493 61.229ZM288.68 62.271C287.831 62.271 287.081 62.0558 286.43 61.6254C285.782 61.195 285.275 60.6005 284.908 59.842C284.542 59.0792 284.358 58.1992 284.358 57.2021C284.358 56.1964 284.542 55.3121 284.908 54.5494C285.275 53.7823 285.782 53.1857 286.43 52.7596C287.081 52.3292 287.831 52.114 288.68 52.114C289.528 52.114 290.275 52.3292 290.923 52.7596C291.571 53.19 292.078 53.7866 292.444 54.5494C292.815 55.3121 293.001 56.1964 293.001 57.2021C293.001 58.1992 292.817 59.0792 292.451 59.842C292.084 60.6005 291.575 61.195 290.923 61.6254C290.275 62.0558 289.528 62.271 288.68 62.271ZM288.68 61.229C289.361 61.229 289.939 61.0458 290.412 60.6793C290.885 60.3129 291.243 59.8249 291.486 59.2156C291.733 58.6062 291.856 57.935 291.856 57.2021C291.856 56.4691 291.733 55.7958 291.486 55.1822C291.243 54.5685 290.885 54.0763 290.412 53.7056C289.939 53.3349 289.361 53.1495 288.68 53.1495C288.002 53.1495 287.425 53.3349 286.947 53.7056C286.474 54.0763 286.114 54.5685 285.867 55.1822C285.624 55.7958 285.503 56.4691 285.503 57.2021C285.503 57.935 285.624 58.6062 285.867 59.2156C286.114 59.8249 286.474 60.3129 286.947 60.6793C287.42 61.0458 287.998 61.229 288.68 61.229ZM287.043 50.5607C286.826 50.5607 286.634 50.4798 286.468 50.3178C286.306 50.1516 286.225 49.9599 286.225 49.7425C286.225 49.5082 286.306 49.3143 286.468 49.1609C286.634 49.0032 286.826 48.9244 287.043 48.9244C287.278 48.9244 287.471 49.0032 287.625 49.1609C287.782 49.3143 287.861 49.5082 287.861 49.7425C287.861 49.9599 287.782 50.1516 287.625 50.3178C287.471 50.4798 287.278 50.5607 287.043 50.5607ZM290.316 50.5607C290.099 50.5607 289.907 50.4798 289.741 50.3178C289.579 50.1516 289.498 49.9599 289.498 49.7425C289.498 49.5082 289.579 49.3143 289.741 49.1609C289.907 49.0032 290.099 48.9244 290.316 48.9244C290.55 48.9244 290.744 49.0032 290.898 49.1609C291.055 49.3143 291.134 49.5082 291.134 49.7425C291.134 49.9599 291.055 50.1516 290.898 50.3178C290.744 50.4798 290.55 50.5607 290.316 50.5607ZM297.344 62.0664L294.378 52.2482H295.58L297.906 60.3469H297.99L300.31 52.2482H301.518L303.819 60.3278H303.909L306.235 52.2482H307.437L304.471 62.0664H303.295L300.968 54.0188H300.847L298.52 62.0664H297.344ZM309.649 62.0664V52.2482H310.754V53.7567H310.838C311.034 53.2624 311.374 52.864 311.86 52.5614C312.35 52.2546 312.904 52.1012 313.522 52.1012C313.616 52.1012 313.72 52.1033 313.835 52.1076C313.95 52.1119 314.046 52.1161 314.123 52.1204V53.2773C314.072 53.2688 313.982 53.256 313.855 53.239C313.727 53.2219 313.588 53.2134 313.439 53.2134C312.928 53.2134 312.472 53.3221 312.071 53.5394C311.675 53.7525 311.362 54.0487 311.132 54.4279C310.901 54.8072 310.786 55.2397 310.786 55.7255V62.0664H309.649ZM319.735 62.271C318.819 62.271 318.026 62.0579 317.357 61.6317C316.688 61.2013 316.171 60.6069 315.804 59.8484C315.442 59.0856 315.261 58.2077 315.261 57.2148C315.261 56.2262 315.442 55.3484 315.804 54.5813C316.171 53.81 316.676 53.207 317.319 52.7724C317.967 52.3335 318.715 52.114 319.563 52.114C320.095 52.114 320.609 52.212 321.103 52.408C321.597 52.5998 322.041 52.896 322.433 53.2965C322.829 53.6928 323.142 54.1935 323.372 54.7987C323.602 55.3995 323.718 56.1112 323.718 56.9336V57.4961H316.047V56.4925H322.554C322.554 55.8619 322.426 55.2951 322.171 54.7923C321.919 54.2852 321.568 53.8846 321.116 53.5906C320.669 53.2965 320.151 53.1495 319.563 53.1495C318.941 53.1495 318.393 53.3157 317.92 53.6481C317.447 53.9805 317.076 54.4194 316.808 54.9648C316.544 55.5103 316.409 56.1069 316.405 56.7546V57.3555C316.405 58.1353 316.539 58.8171 316.808 59.4009C317.08 59.9805 317.466 60.43 317.965 60.7496C318.463 61.0692 319.053 61.229 319.735 61.229C320.2 61.229 320.607 61.1566 320.956 61.0117C321.31 60.8668 321.606 60.6729 321.845 60.43C322.088 60.1829 322.271 59.9123 322.394 59.6183L323.475 59.9698C323.325 60.3832 323.08 60.7646 322.74 61.114C322.403 61.4634 321.981 61.7447 321.474 61.9577C320.971 62.1665 320.392 62.271 319.735 62.271ZM326.461 62.0664V48.9755H327.605V54.1211H327.708C327.836 53.8271 328.019 53.5245 328.257 53.2134C328.5 52.9023 328.818 52.6424 329.21 52.4336C329.606 52.2205 330.105 52.114 330.706 52.114C331.511 52.114 332.218 52.3271 332.828 52.7532C333.437 53.1751 333.912 53.7674 334.253 54.5302C334.594 55.2887 334.765 56.1729 334.765 57.1829C334.765 58.1971 334.594 59.0856 334.253 59.8484C333.917 60.6112 333.444 61.2056 332.834 61.6317C332.229 62.0579 331.526 62.271 330.725 62.271C330.128 62.271 329.63 62.1644 329.229 61.9513C328.833 61.7383 328.513 61.4762 328.27 61.1651C328.027 60.8498 327.84 60.543 327.708 60.2447H327.567V62.0664H326.461ZM327.586 57.1637C327.586 57.9563 327.703 58.6594 327.938 59.2731C328.176 59.8825 328.517 60.3619 328.961 60.7113C329.408 61.0565 329.949 61.229 330.584 61.229C331.236 61.229 331.788 61.0501 332.24 60.6921C332.691 60.3299 333.034 59.842 333.269 59.2283C333.503 58.6147 333.62 57.9265 333.62 57.1637C333.62 56.4094 333.503 55.7298 333.269 55.1246C333.039 54.5195 332.698 54.0401 332.246 53.6864C331.794 53.3285 331.24 53.1495 330.584 53.1495C329.945 53.1495 329.402 53.3221 328.954 53.6673C328.511 54.0082 328.172 54.4812 327.938 55.0863C327.703 55.6871 327.586 56.3796 327.586 57.1637ZM340.006 62.2901C339.414 62.2901 338.873 62.1751 338.382 61.945C337.892 61.7106 337.502 61.3739 337.213 60.935C336.923 60.4918 336.778 59.9549 336.778 59.3242C336.778 58.8384 336.87 58.4293 337.053 58.0969C337.236 57.7646 337.496 57.4918 337.833 57.2788C338.169 57.0657 338.568 56.8974 339.028 56.7738C339.488 56.6502 339.995 56.5543 340.549 56.4862C341.099 56.418 341.564 56.3583 341.943 56.3072C342.326 56.256 342.618 56.1751 342.819 56.0643C343.019 55.9535 343.119 55.7745 343.119 55.5273V55.2972C343.119 54.6282 342.919 54.1019 342.518 53.7184C342.122 53.3306 341.551 53.1367 340.805 53.1367C340.098 53.1367 339.52 53.2923 339.073 53.6033C338.63 53.9144 338.319 54.2809 338.14 54.7028L337.059 54.3129C337.281 53.7759 337.588 53.3477 337.98 53.0281C338.372 52.7042 338.811 52.4719 339.297 52.3313C339.782 52.1864 340.275 52.114 340.773 52.114C341.148 52.114 341.538 52.163 341.943 52.261C342.352 52.359 342.731 52.5295 343.081 52.7724C343.43 53.011 343.713 53.3455 343.931 53.7759C344.148 54.2021 344.257 54.7433 344.257 55.3995V62.0664H343.119V60.5131H343.049C342.912 60.8029 342.71 61.0842 342.441 61.3569C342.173 61.6296 341.836 61.8533 341.431 62.0281C341.027 62.2028 340.551 62.2901 340.006 62.2901ZM340.159 61.2482C340.765 61.2482 341.289 61.114 341.732 60.8455C342.175 60.5771 342.516 60.2212 342.755 59.7781C342.998 59.3306 343.119 58.8384 343.119 58.3015V56.8825C343.034 56.9634 342.891 57.0359 342.691 57.0998C342.495 57.1637 342.267 57.2212 342.007 57.2724C341.751 57.3192 341.495 57.3597 341.24 57.3938C340.984 57.4279 340.754 57.4577 340.549 57.4833C339.995 57.5515 339.522 57.658 339.13 57.8029C338.738 57.9478 338.438 58.1481 338.229 58.4038C338.02 58.6552 337.916 58.979 337.916 59.3754C337.916 59.9719 338.129 60.4343 338.555 60.7624C338.981 61.0863 339.516 61.2482 340.159 61.2482ZM347.283 65.7482V52.2482H348.389V54.1211H348.523C348.66 53.8271 348.847 53.5266 349.086 53.2198C349.325 52.9087 349.64 52.6467 350.032 52.4336C350.428 52.2205 350.927 52.114 351.528 52.114C352.337 52.114 353.045 52.3271 353.65 52.7532C354.259 53.1751 354.732 53.7674 355.069 54.5302C355.41 55.2887 355.58 56.1729 355.58 57.1829C355.58 58.1971 355.41 59.0856 355.069 59.8484C354.732 60.6112 354.259 61.2056 353.65 61.6317C353.045 62.0579 352.342 62.271 351.54 62.271C350.948 62.271 350.452 62.1644 350.051 61.9513C349.655 61.7383 349.333 61.4762 349.086 61.1651C348.843 60.8498 348.656 60.543 348.523 60.2447H348.421V65.7482H347.283ZM348.408 57.1637C348.408 57.9563 348.526 58.6594 348.76 59.2731C348.999 59.8825 349.339 60.3619 349.783 60.7113C350.23 61.0565 350.771 61.229 351.406 61.229C352.058 61.229 352.608 61.0501 353.055 60.6921C353.507 60.3299 353.85 59.842 354.085 59.2283C354.323 58.6147 354.442 57.9265 354.442 57.1637C354.442 56.4094 354.325 55.7298 354.091 55.1246C353.861 54.5195 353.52 54.0401 353.068 53.6864C352.616 53.3285 352.062 53.1495 351.406 53.1495C350.767 53.1495 350.224 53.3221 349.776 53.6673C349.329 54.0082 348.988 54.4812 348.754 55.0863C348.523 55.6871 348.408 56.3796 348.408 57.1637ZM363.931 65.7482C363.706 65.7482 363.495 65.7269 363.299 65.6843C363.103 65.6417 362.947 65.5948 362.832 65.5437L363.139 64.5401C363.527 64.6594 363.872 64.7021 364.174 64.668C364.477 64.6381 364.745 64.5018 364.98 64.2589C365.214 64.0202 365.423 63.6538 365.606 63.1594L365.964 62.1623L362.353 52.2482H363.586L366.501 60.5643H366.591L369.505 52.2482H370.739L366.584 63.6197C366.409 64.0927 366.194 64.4869 365.939 64.8022C365.683 65.1218 365.387 65.3583 365.05 65.5117C364.718 65.6694 364.345 65.7482 363.931 65.7482ZM366.015 50.8867L367.652 47.9847H369L367.038 50.8867H366.015ZM376.43 62.271C375.581 62.271 374.831 62.0558 374.18 61.6254C373.532 61.195 373.025 60.6005 372.658 59.842C372.292 59.0792 372.108 58.1992 372.108 57.2021C372.108 56.1964 372.292 55.3121 372.658 54.5494C373.025 53.7823 373.532 53.1857 374.18 52.7596C374.831 52.3292 375.581 52.114 376.43 52.114C377.278 52.114 378.025 52.3292 378.673 52.7596C379.321 53.19 379.828 53.7866 380.194 54.5494C380.565 55.3121 380.751 56.1964 380.751 57.2021C380.751 58.1992 380.567 59.0792 380.201 59.842C379.834 60.6005 379.325 61.195 378.673 61.6254C378.025 62.0558 377.278 62.271 376.43 62.271ZM376.43 61.229C377.111 61.229 377.689 61.0458 378.162 60.6793C378.635 60.3129 378.993 59.8249 379.236 59.2156C379.483 58.6062 379.606 57.935 379.606 57.2021C379.606 56.4691 379.483 55.7958 379.236 55.1822C378.993 54.5685 378.635 54.0763 378.162 53.7056C377.689 53.3349 377.111 53.1495 376.43 53.1495C375.752 53.1495 375.175 53.3349 374.697 53.7056C374.224 54.0763 373.864 54.5685 373.617 55.1822C373.374 55.7958 373.253 56.4691 373.253 57.2021C373.253 57.935 373.374 58.6062 373.617 59.2156C373.864 59.8249 374.224 60.3129 374.697 60.6793C375.17 61.0458 375.748 61.229 376.43 61.229ZM384.386 48.9755V62.0664H383.248V48.9755H384.386ZM390.139 62.2901C389.547 62.2901 389.005 62.1751 388.515 61.945C388.025 61.7106 387.635 61.3739 387.346 60.935C387.056 60.4918 386.911 59.9549 386.911 59.3242C386.911 58.8384 387.002 58.4293 387.186 58.0969C387.369 57.7646 387.629 57.4918 387.966 57.2788C388.302 57.0657 388.701 56.8974 389.161 56.7738C389.621 56.6502 390.128 56.5543 390.682 56.4862C391.232 56.418 391.696 56.3583 392.076 56.3072C392.459 56.256 392.751 56.1751 392.951 56.0643C393.152 55.9535 393.252 55.7745 393.252 55.5273V55.2972C393.252 54.6282 393.051 54.1019 392.651 53.7184C392.255 53.3306 391.684 53.1367 390.938 53.1367C390.23 53.1367 389.653 53.2923 389.206 53.6033C388.762 53.9144 388.451 54.2809 388.272 54.7028L387.192 54.3129C387.414 53.7759 387.721 53.3477 388.113 53.0281C388.505 52.7042 388.944 52.4719 389.429 52.3313C389.915 52.1864 390.407 52.114 390.906 52.114C391.281 52.114 391.671 52.163 392.076 52.261C392.485 52.359 392.864 52.5295 393.213 52.7724C393.563 53.011 393.846 53.3455 394.064 53.7759C394.281 54.2021 394.39 54.7433 394.39 55.3995V62.0664H393.252V60.5131H393.181C393.045 60.8029 392.843 61.0842 392.574 61.3569C392.306 61.6296 391.969 61.8533 391.564 62.0281C391.159 62.2028 390.684 62.2901 390.139 62.2901ZM390.292 61.2482C390.897 61.2482 391.422 61.114 391.865 60.8455C392.308 60.5771 392.649 60.2212 392.887 59.7781C393.13 59.3306 393.252 58.8384 393.252 58.3015V56.8825C393.167 56.9634 393.024 57.0359 392.824 57.0998C392.627 57.1637 392.4 57.2212 392.14 57.2724C391.884 57.3192 391.628 57.3597 391.373 57.3938C391.117 57.4279 390.887 57.4577 390.682 57.4833C390.128 57.5515 389.655 57.658 389.263 57.8029C388.871 57.9478 388.571 58.1481 388.362 58.4038C388.153 58.6552 388.049 58.979 388.049 59.3754C388.049 59.9719 388.262 60.4343 388.688 60.7624C389.114 61.0863 389.649 61.2482 390.292 61.2482ZM401.162 65.9528C400.493 65.9528 399.907 65.8654 399.404 65.6907C398.901 65.5202 398.477 65.2859 398.132 64.9876C397.787 64.6893 397.518 64.3548 397.327 63.984L398.26 63.3704C398.401 63.6175 398.588 63.8604 398.822 64.0991C399.061 64.3377 399.37 64.5359 399.749 64.6935C400.133 64.8512 400.604 64.93 401.162 64.93C402.031 64.93 402.732 64.7127 403.265 64.2781C403.802 63.8434 404.07 63.168 404.07 62.2518V60.0401H403.968C403.836 60.3384 403.646 60.6367 403.399 60.935C403.152 61.229 402.828 61.4741 402.428 61.6701C402.031 61.8661 401.539 61.9641 400.951 61.9641C400.167 61.9641 399.47 61.7702 398.861 61.3825C398.256 60.9947 397.778 60.4407 397.429 59.7205C397.084 58.9961 396.911 58.1332 396.911 57.1317C396.911 56.1388 397.08 55.2653 397.416 54.511C397.757 53.7567 398.232 53.1687 398.842 52.7468C399.451 52.3249 400.161 52.114 400.97 52.114C401.571 52.114 402.07 52.2205 402.466 52.4336C402.862 52.6424 403.18 52.9023 403.418 53.2134C403.661 53.5245 403.851 53.8271 403.987 54.1211H404.102V52.2482H405.214V62.3221C405.214 63.1531 405.038 63.837 404.684 64.3739C404.33 64.9109 403.849 65.3072 403.239 65.5629C402.63 65.8228 401.938 65.9528 401.162 65.9528ZM401.085 60.9222C401.716 60.9222 402.255 60.771 402.702 60.4684C403.15 60.1616 403.493 59.7227 403.732 59.1516C403.97 58.5806 404.089 57.9009 404.089 57.1126C404.089 56.3455 403.972 55.6658 403.738 55.0735C403.504 54.4769 403.163 54.0082 402.715 53.6673C402.272 53.3221 401.729 53.1495 401.085 53.1495C400.429 53.1495 399.875 53.3263 399.423 53.68C398.972 54.0337 398.631 54.511 398.401 55.1119C398.17 55.7085 398.055 56.3754 398.055 57.1126C398.055 57.8626 398.173 58.5252 398.407 59.1005C398.641 59.6715 398.984 60.119 399.436 60.4428C399.888 60.7624 400.438 60.9222 401.085 60.9222ZM412.062 62.271C411.184 62.271 410.419 62.0515 409.767 61.6126C409.119 61.1737 408.617 60.5728 408.259 59.81C407.901 59.0472 407.722 58.1779 407.722 57.2021C407.722 56.2177 407.903 55.342 408.265 54.5749C408.632 53.8079 409.139 53.207 409.786 52.7724C410.434 52.3335 411.186 52.114 412.043 52.114C412.699 52.114 413.294 52.2418 413.826 52.4975C414.359 52.7489 414.798 53.1048 415.143 53.565C415.492 54.021 415.712 54.5536 415.801 55.163H414.651C414.531 54.609 414.244 54.136 413.788 53.744C413.336 53.3477 412.761 53.1495 412.062 53.1495C411.436 53.1495 410.882 53.32 410.4 53.6609C409.919 53.9975 409.541 54.4684 409.269 55.0735C409 55.6744 408.866 56.3711 408.866 57.1637C408.866 57.9606 408.998 58.6658 409.262 59.2795C409.526 59.8888 409.897 60.3661 410.374 60.7113C410.856 61.0565 411.419 61.229 412.062 61.229C412.497 61.229 412.893 61.1481 413.251 60.9862C413.613 60.82 413.916 60.5856 414.159 60.283C414.406 59.9805 414.572 59.6204 414.657 59.2028H415.808C415.722 59.7951 415.512 60.3235 415.175 60.788C414.843 61.2482 414.41 61.6104 413.877 61.8746C413.349 62.1388 412.744 62.271 412.062 62.271ZM411.48 62.0153H412.452L412.356 62.5266C412.722 62.582 413.034 62.729 413.289 62.9677C413.549 63.2106 413.681 63.5643 413.686 64.0288C413.681 64.5444 413.479 64.9535 413.078 65.256C412.682 65.5586 412.096 65.7141 411.32 65.7227L411.282 64.9237C411.704 64.9151 412.036 64.8427 412.279 64.7063C412.522 64.5742 412.644 64.359 412.644 64.0607C412.644 63.7411 412.531 63.5153 412.305 63.3832C412.083 63.2511 411.732 63.1722 411.25 63.1467L411.48 62.0153ZM419.039 65.7482C418.813 65.7482 418.602 65.7269 418.406 65.6843C418.21 65.6417 418.055 65.5948 417.939 65.5437L418.246 64.5401C418.634 64.6594 418.979 64.7021 419.282 64.668C419.584 64.6381 419.853 64.5018 420.087 64.2589C420.322 64.0202 420.53 63.6538 420.714 63.1594L421.072 62.1623L417.46 52.2482H418.694L421.608 60.5643H421.698L424.613 52.2482H425.846L421.692 63.6197C421.517 64.0927 421.302 64.4869 421.046 64.8022C420.79 65.1218 420.494 65.3583 420.157 65.5117C419.825 65.6694 419.452 65.7482 419.039 65.7482ZM28.2053 84.2901C27.6129 84.2901 27.0717 84.1751 26.5817 83.945C26.0916 83.7106 25.7017 83.3739 25.4119 82.935C25.1222 82.4918 24.9773 81.9549 24.9773 81.3242C24.9773 80.8384 25.0689 80.4293 25.2521 80.0969C25.4354 79.7646 25.6953 79.4918 26.032 79.2788C26.3686 79.0657 26.767 78.8974 27.2273 78.7738C27.6875 78.6502 28.1946 78.5543 28.7486 78.4862C29.2983 78.418 29.7628 78.3583 30.142 78.3072C30.5256 78.256 30.8175 78.1751 31.0178 78.0643C31.218 77.9535 31.3182 77.7745 31.3182 77.5273V77.2972C31.3182 76.6282 31.1179 76.1019 30.7173 75.7184C30.321 75.3306 29.75 75.1367 29.0043 75.1367C28.2969 75.1367 27.7195 75.2923 27.272 75.6033C26.8288 75.9144 26.5178 76.2809 26.3388 76.7028L25.2585 76.3129C25.4801 75.7759 25.7869 75.3477 26.179 75.0281C26.571 74.7042 27.0099 74.4719 27.4957 74.3313C27.9815 74.1864 28.4737 74.114 28.9723 74.114C29.3473 74.114 29.7372 74.163 30.142 74.261C30.5511 74.359 30.9304 74.5295 31.2798 74.7724C31.6293 75.011 31.9126 75.3455 32.13 75.7759C32.3473 76.2021 32.456 76.7433 32.456 77.3995V84.0664H31.3182V82.5131H31.2479C31.1115 82.8029 30.9091 83.0842 30.6406 83.3569C30.3722 83.6296 30.0355 83.8533 29.6307 84.0281C29.2259 84.2028 28.7507 84.2901 28.2053 84.2901ZM28.3587 83.2482C28.9638 83.2482 29.4879 83.114 29.9311 82.8455C30.3743 82.5771 30.7152 82.2212 30.9538 81.7781C31.1967 81.3306 31.3182 80.8384 31.3182 80.3015V78.8825C31.233 78.9634 31.0902 79.0359 30.8899 79.0998C30.6939 79.1637 30.4659 79.2212 30.206 79.2724C29.9503 79.3192 29.6946 79.3597 29.4389 79.3938C29.1832 79.4279 28.9531 79.4577 28.7486 79.4833C28.1946 79.5515 27.7216 79.658 27.3295 79.8029C26.9375 79.9478 26.6371 80.1481 26.4283 80.4038C26.2195 80.6552 26.1151 80.979 26.1151 81.3754C26.1151 81.9719 26.3281 82.4343 26.7543 82.7624C27.1804 83.0863 27.7152 83.2482 28.3587 83.2482ZM37.6623 84.0664L34.6964 74.2482H35.8981L38.2248 82.3469H38.3079L40.6282 74.2482H41.8363L44.1374 82.3278H44.2269L46.5536 74.2482H47.7553L44.7894 84.0664H43.6133L41.2866 76.0188H41.1651L38.8384 84.0664H37.6623ZM53.8342 74.2482V75.239H49.1488V74.2482H53.8342ZM50.6126 71.896H51.7567V81.5032C51.7567 81.9123 51.8271 82.234 51.9677 82.4684C52.1083 82.6985 52.2915 82.8626 52.5174 82.9606C52.7433 83.0543 52.984 83.1012 53.2397 83.1012C53.3888 83.1012 53.5167 83.0927 53.6232 83.0756C53.7298 83.0543 53.8235 83.033 53.9045 83.0117L54.1474 84.0408C54.0366 84.0835 53.9002 84.1218 53.7383 84.1559C53.5763 84.1942 53.3761 84.2134 53.1374 84.2134C52.7198 84.2134 52.3171 84.1218 51.9293 83.9386C51.5458 83.7553 51.2305 83.4826 50.9833 83.1204C50.7362 82.7582 50.6126 82.3086 50.6126 81.7717V71.896ZM60.1287 84.271C59.2807 84.271 58.5307 84.0558 57.8787 83.6254C57.231 83.195 56.7239 82.6005 56.3574 81.842C55.9909 81.0792 55.8077 80.1992 55.8077 79.2021C55.8077 78.1964 55.9909 77.3121 56.3574 76.5494C56.7239 75.7823 57.231 75.1857 57.8787 74.7596C58.5307 74.3292 59.2807 74.114 60.1287 74.114C60.9767 74.114 61.7246 74.3292 62.3723 74.7596C63.0201 75.19 63.5272 75.7866 63.8936 76.5494C64.2644 77.3121 64.4498 78.1964 64.4498 79.2021C64.4498 80.1992 64.2665 81.0792 63.9 81.842C63.5336 82.6005 63.0243 83.195 62.3723 83.6254C61.7246 84.0558 60.9767 84.271 60.1287 84.271ZM60.1287 83.229C60.8105 83.229 61.388 83.0458 61.861 82.6793C62.334 82.3129 62.6919 81.8249 62.9348 81.2156C63.182 80.6062 63.3056 79.935 63.3056 79.2021C63.3056 78.4691 63.182 77.7958 62.9348 77.1822C62.6919 76.5685 62.334 76.0763 61.861 75.7056C61.388 75.3349 60.8105 75.1495 60.1287 75.1495C59.4512 75.1495 58.8738 75.3349 58.3965 75.7056C57.9235 76.0763 57.5634 76.5685 57.3162 77.1822C57.0733 77.7958 56.9519 78.4691 56.9519 79.2021C56.9519 79.935 57.0733 80.6062 57.3162 81.2156C57.5634 81.8249 57.9235 82.3129 58.3965 82.6793C58.8695 83.0458 59.4469 83.229 60.1287 83.229ZM67.1839 84.0664V70.9755H68.3281V76.1211H68.4304C68.5582 75.8271 68.7415 75.5245 68.9801 75.2134C69.223 74.9023 69.5405 74.6424 69.9325 74.4336C70.3288 74.2205 70.8274 74.114 71.4283 74.114C72.2337 74.114 72.9411 74.3271 73.5504 74.7532C74.1598 75.1751 74.6349 75.7674 74.9759 76.5302C75.3168 77.2887 75.4872 78.1729 75.4872 79.1829C75.4872 80.1971 75.3168 81.0856 74.9759 81.8484C74.6392 82.6112 74.1662 83.2056 73.5568 83.6317C72.9517 84.0579 72.2486 84.271 71.4474 84.271C70.8509 84.271 70.3523 84.1644 69.9517 83.9513C69.5554 83.7383 69.2358 83.4762 68.9929 83.1651C68.75 82.8498 68.5625 82.543 68.4304 82.2447H68.2898V84.0664H67.1839ZM68.3089 79.1637C68.3089 79.9563 68.4261 80.6594 68.6605 81.2731C68.8991 81.8825 69.2401 82.3619 69.6832 82.7113C70.1307 83.0565 70.6719 83.229 71.3068 83.229C71.9588 83.229 72.5107 83.0501 72.9624 82.6921C73.4141 82.3299 73.7571 81.842 73.9915 81.2283C74.2259 80.6147 74.343 79.9265 74.343 79.1637C74.343 78.4094 74.2259 77.7298 73.9915 77.1246C73.7614 76.5195 73.4205 76.0401 72.9688 75.6864C72.517 75.3285 71.9631 75.1495 71.3068 75.1495C70.6676 75.1495 70.1243 75.3221 69.6768 75.6673C69.2337 76.0082 68.8949 76.4812 68.6605 77.0863C68.4261 77.6871 68.3089 78.3796 68.3089 79.1637ZM84.2251 80.3143V74.2482H85.3629V84.0664H84.2251V82.4364H84.1357C83.9055 82.9393 83.5412 83.359 83.0426 83.6957C82.544 84.0281 81.9347 84.1942 81.2145 84.1942C80.5881 84.1942 80.032 84.0579 79.5462 83.7852C79.0604 83.5082 78.679 83.1033 78.402 82.5707C78.125 82.038 77.9865 81.3839 77.9865 80.6083V74.2482H79.1243V80.538C79.1243 81.305 79.3501 81.9229 79.8018 82.3917C80.2536 82.8562 80.8331 83.0884 81.5405 83.0884C81.9837 83.0884 82.4098 82.9819 82.8189 82.7688C83.228 82.5558 83.5646 82.2447 83.8288 81.8356C84.093 81.4222 84.2251 80.9151 84.2251 80.3143ZM94.9718 76.4023L93.9299 76.6964C93.8276 76.4023 93.6827 76.136 93.4952 75.8974C93.3077 75.6587 93.0627 75.4691 92.7601 75.3285C92.4618 75.1879 92.0911 75.1175 91.6479 75.1175C90.9831 75.1175 90.4377 75.2752 90.0115 75.5906C89.5854 75.9059 89.3723 76.3129 89.3723 76.8114C89.3723 77.2333 89.5172 77.5763 89.807 77.8406C90.101 78.1005 90.5527 78.3072 91.1621 78.4606L92.6451 78.8249C93.4675 79.0252 94.0833 79.3427 94.4924 79.7773C94.9057 80.212 95.1124 80.7575 95.1124 81.4137C95.1124 81.9677 94.959 82.4599 94.6522 82.8903C94.3453 83.3207 93.9171 83.6594 93.3674 83.9066C92.8219 84.1495 92.1891 84.271 91.4689 84.271C90.5101 84.271 89.7196 84.0558 89.0975 83.6254C88.4753 83.1907 88.0769 82.5643 87.9022 81.7461L88.9952 81.4776C89.1358 82.0614 89.4107 82.5025 89.8198 82.8008C90.2331 83.0991 90.7765 83.2482 91.4498 83.2482C92.204 83.2482 92.807 83.0799 93.2587 82.7433C93.7104 82.4023 93.9363 81.9762 93.9363 81.4648C93.9363 81.0685 93.8042 80.7362 93.54 80.4677C93.2757 80.195 92.8752 79.9947 92.3382 79.8668L90.7338 79.4833C89.8816 79.2788 89.2509 78.9549 88.8418 78.5117C88.4327 78.0685 88.2282 77.5188 88.2282 76.8626C88.2282 76.3214 88.3752 75.8462 88.6692 75.4371C88.9632 75.0238 89.3681 74.6999 89.8837 74.4656C90.3993 74.2312 90.9874 74.114 91.6479 74.114C92.5471 74.114 93.2651 74.3185 93.802 74.7276C94.3432 75.1325 94.7331 75.6907 94.9718 76.4023ZM98.7415 70.9755V84.0664H97.6037V70.9755H98.7415ZM104.494 84.2901C103.902 84.2901 103.361 84.1751 102.871 83.945C102.381 83.7106 101.991 83.3739 101.701 82.935C101.411 82.4918 101.266 81.9549 101.266 81.3242C101.266 80.8384 101.358 80.4293 101.541 80.0969C101.724 79.7646 101.984 79.4918 102.321 79.2788C102.658 79.0657 103.056 78.8974 103.516 78.7738C103.977 78.6502 104.484 78.5543 105.038 78.4862C105.587 78.418 106.052 78.3583 106.431 78.3072C106.815 78.256 107.107 78.1751 107.307 78.0643C107.507 77.9535 107.607 77.7745 107.607 77.5273V77.2972C107.607 76.6282 107.407 76.1019 107.006 75.7184C106.61 75.3306 106.039 75.1367 105.293 75.1367C104.586 75.1367 104.009 75.2923 103.561 75.6033C103.118 75.9144 102.807 76.2809 102.628 76.7028L101.548 76.3129C101.769 75.7759 102.076 75.3477 102.468 75.0281C102.86 74.7042 103.299 74.4719 103.785 74.3313C104.271 74.1864 104.763 74.114 105.261 74.114C105.636 74.114 106.026 74.163 106.431 74.261C106.84 74.359 107.219 74.5295 107.569 74.7724C107.918 75.011 108.202 75.3455 108.419 75.7759C108.636 76.2021 108.745 76.7433 108.745 77.3995V84.0664H107.607V82.5131H107.537C107.401 82.8029 107.198 83.0842 106.93 83.3569C106.661 83.6296 106.325 83.8533 105.92 84.0281C105.515 84.2028 105.04 84.2901 104.494 84.2901ZM104.648 83.2482C105.253 83.2482 105.777 83.114 106.22 82.8455C106.663 82.5771 107.004 82.2212 107.243 81.7781C107.486 81.3306 107.607 80.8384 107.607 80.3015V78.8825C107.522 78.9634 107.379 79.0359 107.179 79.0998C106.983 79.1637 106.755 79.2212 106.495 79.2724C106.239 79.3192 105.984 79.3597 105.728 79.3938C105.472 79.4279 105.242 79.4577 105.038 79.4833C104.484 79.5515 104.011 79.658 103.619 79.8029C103.227 79.9478 102.926 80.1481 102.717 80.4038C102.509 80.6552 102.404 80.979 102.404 81.3754C102.404 81.9719 102.617 82.4343 103.043 82.7624C103.469 83.0863 104.004 83.2482 104.648 83.2482ZM111.772 84.0664V74.2482H112.877V75.7567H112.961C113.157 75.2624 113.498 74.864 113.983 74.5614C114.473 74.2546 115.027 74.1012 115.645 74.1012C115.739 74.1012 115.843 74.1033 115.958 74.1076C116.074 74.1119 116.169 74.1161 116.246 74.1204V75.2773C116.195 75.2688 116.105 75.256 115.978 75.239C115.85 75.2219 115.711 75.2134 115.562 75.2134C115.051 75.2134 114.595 75.3221 114.194 75.5394C113.798 75.7525 113.485 76.0487 113.255 76.4279C113.025 76.8072 112.909 77.2397 112.909 77.7255V84.0664H111.772ZM119.279 87.7482C119.053 87.7482 118.842 87.7269 118.646 87.6843C118.45 87.6417 118.295 87.5948 118.18 87.5437L118.487 86.5401C118.874 86.6594 119.219 86.7021 119.522 86.668C119.825 86.6381 120.093 86.5018 120.327 86.2589C120.562 86.0202 120.771 85.6538 120.954 85.1594L121.312 84.1623L117.7 74.2482H118.934L121.849 82.5643H121.938L124.853 74.2482H126.087L121.932 85.6197C121.757 86.0927 121.542 86.4869 121.286 86.8022C121.031 87.1218 120.734 87.3583 120.398 87.5117C120.065 87.6694 119.692 87.7482 119.279 87.7482ZM129.45 77.93V84.0664H128.313V74.2482H129.419V75.7887H129.521C129.751 75.2859 130.109 74.8832 130.595 74.5806C131.085 74.2738 131.69 74.1204 132.41 74.1204C133.07 74.1204 133.65 74.2589 134.149 74.5359C134.651 74.8086 135.041 75.2113 135.318 75.744C135.6 76.2766 135.74 76.9308 135.74 77.7063V84.0664H134.602V77.7766C134.602 76.9712 134.377 76.3342 133.925 75.8654C133.477 75.3967 132.877 75.1623 132.122 75.1623C131.607 75.1623 131.149 75.2731 130.748 75.4947C130.347 75.7163 130.03 76.0359 129.796 76.4535C129.566 76.8668 129.45 77.359 129.45 77.93ZM139.178 87.7482C138.952 87.7482 138.741 87.7269 138.545 87.6843C138.349 87.6417 138.193 87.5948 138.078 87.5437L138.385 86.5401C138.773 86.6594 139.118 86.7021 139.42 86.668C139.723 86.6381 139.991 86.5018 140.226 86.2589C140.46 86.0202 140.669 85.6538 140.852 85.1594L141.21 84.1623L137.599 74.2482H138.832L141.747 82.5643H141.837L144.751 74.2482H145.985L141.83 85.6197C141.656 86.0927 141.44 86.4869 141.185 86.8022C140.929 87.1218 140.633 87.3583 140.296 87.5117C139.964 87.6694 139.591 87.7482 139.178 87.7482ZM149.349 77.93V84.0664H148.211V74.2482H149.317V75.7887H149.419C149.649 75.2859 150.007 74.8832 150.493 74.5806C150.983 74.2738 151.588 74.1204 152.308 74.1204C152.969 74.1204 153.548 74.2589 154.047 74.5359C154.55 74.8086 154.94 75.2113 155.217 75.744C155.498 76.2766 155.639 76.9308 155.639 77.7063V84.0664H154.501V77.7766C154.501 76.9712 154.275 76.3342 153.823 75.8654C153.376 75.3967 152.775 75.1623 152.021 75.1623C151.505 75.1623 151.047 75.2731 150.646 75.4947C150.246 75.7163 149.928 76.0359 149.694 76.4535C149.464 76.8668 149.349 77.359 149.349 77.93ZM150.404 70.3491L151.931 72.2028L153.459 70.3491H154.571V70.4386L152.411 73.0082H151.452L149.291 70.4386V70.3491H150.404ZM167.667 84.271C166.751 84.271 165.958 84.0579 165.289 83.6317C164.62 83.2013 164.102 82.6069 163.736 81.8484C163.374 81.0856 163.192 80.2077 163.192 79.2148C163.192 78.2262 163.374 77.3484 163.736 76.5813C164.102 75.81 164.607 75.207 165.251 74.7724C165.898 74.3335 166.646 74.114 167.494 74.114C168.027 74.114 168.54 74.212 169.035 74.408C169.529 74.5998 169.972 74.896 170.364 75.2965C170.761 75.6928 171.074 76.1935 171.304 76.7987C171.534 77.3995 171.649 78.1112 171.649 78.9336V79.4961H163.979V78.4925H170.486C170.486 77.8619 170.358 77.2951 170.102 76.7923C169.851 76.2852 169.499 75.8846 169.048 75.5906C168.6 75.2965 168.082 75.1495 167.494 75.1495C166.872 75.1495 166.325 75.3157 165.852 75.6481C165.379 75.9805 165.008 76.4194 164.739 76.9648C164.475 77.5103 164.341 78.1069 164.337 78.7546V79.3555C164.337 80.1353 164.471 80.8171 164.739 81.4009C165.012 81.9805 165.398 82.43 165.896 82.7496C166.395 83.0692 166.985 83.229 167.667 83.229C168.131 83.229 168.538 83.1566 168.888 83.0117C169.241 82.8668 169.538 82.6729 169.776 82.43C170.019 82.1829 170.202 81.9123 170.326 81.6183L171.406 81.9698C171.257 82.3832 171.012 82.7646 170.671 83.114C170.335 83.4634 169.913 83.7447 169.406 83.9577C168.903 84.1665 168.323 84.271 167.667 84.271ZM175.294 77.93V84.0664H174.156V74.2482H175.262V75.7887H175.365C175.595 75.2859 175.953 74.8832 176.438 74.5806C176.928 74.2738 177.534 74.1204 178.254 74.1204C178.914 74.1204 179.494 74.2589 179.992 74.5359C180.495 74.8086 180.885 75.2113 181.162 75.744C181.443 76.2766 181.584 76.9308 181.584 77.7063V84.0664H180.446V77.7766C180.446 76.9712 180.22 76.3342 179.769 75.8654C179.321 75.3967 178.72 75.1623 177.966 75.1623C177.45 75.1623 176.992 75.2731 176.592 75.4947C176.191 75.7163 175.874 76.0359 175.639 76.4535C175.409 76.8668 175.294 77.359 175.294 77.93ZM188.415 84.271C187.538 84.271 186.773 84.0515 186.121 83.6126C185.473 83.1737 184.97 82.5728 184.612 81.81C184.254 81.0472 184.075 80.1779 184.075 79.2021C184.075 78.2177 184.256 77.342 184.619 76.5749C184.985 75.8079 185.492 75.207 186.14 74.7724C186.788 74.3335 187.54 74.114 188.396 74.114C189.053 74.114 189.647 74.2418 190.18 74.4975C190.712 74.7489 191.151 75.1048 191.496 75.565C191.846 76.021 192.065 76.5536 192.155 77.163H191.004C190.885 76.609 190.597 76.136 190.141 75.744C189.69 75.3477 189.114 75.1495 188.415 75.1495C187.789 75.1495 187.235 75.32 186.754 75.6609C186.272 75.9975 185.895 76.4684 185.622 77.0735C185.354 77.6744 185.219 78.3711 185.219 79.1637C185.219 79.9606 185.352 80.6658 185.616 81.2795C185.88 81.8888 186.251 82.3661 186.728 82.7113C187.21 83.0565 187.772 83.229 188.415 83.229C188.85 83.229 189.246 83.1481 189.604 82.9862C189.967 82.82 190.269 82.5856 190.512 82.283C190.759 81.9805 190.925 81.6204 191.011 81.2028H192.161C192.076 81.7951 191.865 82.3235 191.528 82.788C191.196 83.2482 190.763 83.6104 190.231 83.8746C189.702 84.1388 189.097 84.271 188.415 84.271ZM187.834 84.0153H188.805L188.71 84.5266C189.076 84.582 189.387 84.729 189.643 84.9677C189.903 85.2106 190.035 85.5643 190.039 86.0288C190.035 86.5444 189.832 86.9535 189.432 87.256C189.036 87.5586 188.45 87.7141 187.674 87.7227L187.636 86.9237C188.058 86.9151 188.39 86.8427 188.633 86.7063C188.876 86.5742 188.997 86.359 188.997 86.0607C188.997 85.7411 188.884 85.5153 188.658 85.3832C188.437 85.2511 188.085 85.1722 187.604 85.1467L187.834 84.0153ZM198.569 84.271C197.653 84.271 196.86 84.0579 196.191 83.6317C195.522 83.2013 195.005 82.6069 194.638 81.8484C194.276 81.0856 194.095 80.2077 194.095 79.2148C194.095 78.2262 194.276 77.3484 194.638 76.5813C195.005 75.81 195.51 75.207 196.153 74.7724C196.801 74.3335 197.549 74.114 198.397 74.114C198.929 74.114 199.443 74.212 199.937 74.408C200.431 74.5998 200.875 74.896 201.267 75.2965C201.663 75.6928 201.976 76.1935 202.206 76.7987C202.436 77.3995 202.551 78.1112 202.551 78.9336V79.4961H194.881V78.4925H201.388C201.388 77.8619 201.26 77.2951 201.005 76.7923C200.753 76.2852 200.402 75.8846 199.95 75.5906C199.502 75.2965 198.985 75.1495 198.397 75.1495C197.775 75.1495 197.227 75.3157 196.754 75.6481C196.281 75.9805 195.91 76.4194 195.642 76.9648C195.377 77.5103 195.243 78.1069 195.239 78.7546V79.3555C195.239 80.1353 195.373 80.8171 195.642 81.4009C195.914 81.9805 196.3 82.43 196.799 82.7496C197.297 83.0692 197.887 83.229 198.569 83.229C199.034 83.229 199.441 83.1566 199.79 83.0117C200.144 82.8668 200.44 82.6729 200.679 82.43C200.922 82.1829 201.105 81.9123 201.228 81.6183L202.309 81.9698C202.159 82.3832 201.914 82.7646 201.574 83.114C201.237 83.4634 200.815 83.7447 200.308 83.9577C199.805 84.1665 199.225 84.271 198.569 84.271ZM205.059 84.0664V74.2482H206.165V75.7567H206.267C206.463 75.2496 206.789 74.8512 207.245 74.5614C207.705 74.2674 208.257 74.1204 208.9 74.1204C209.578 74.1204 210.134 74.2802 210.569 74.5998C211.008 74.9151 211.336 75.3498 211.553 75.9038H211.636C211.858 75.3583 212.218 74.9258 212.716 74.6062C213.219 74.2823 213.829 74.1204 214.545 74.1204C215.456 74.1204 216.177 74.408 216.705 74.9833C217.233 75.5543 217.498 76.3896 217.498 77.489V84.0664H216.36V77.489C216.36 76.7134 216.162 76.1317 215.765 75.744C215.369 75.3562 214.847 75.1623 214.199 75.1623C213.449 75.1623 212.872 75.3924 212.467 75.8526C212.062 76.3129 211.86 76.8967 211.86 77.604V84.0664H210.697V77.3867C210.697 76.7219 210.511 76.185 210.14 75.7759C209.77 75.3668 209.248 75.1623 208.574 75.1623C208.123 75.1623 207.716 75.2731 207.354 75.4947C206.996 75.7163 206.712 76.0252 206.503 76.4215C206.299 76.8136 206.197 77.2653 206.197 77.7766V84.0664H205.059ZM224.479 84.271C223.563 84.271 222.771 84.0579 222.102 83.6317C221.433 83.2013 220.915 82.6069 220.548 81.8484C220.186 81.0856 220.005 80.2077 220.005 79.2148C220.005 78.2262 220.186 77.3484 220.548 76.5813C220.915 75.81 221.42 75.207 222.063 74.7724C222.711 74.3335 223.459 74.114 224.307 74.114C224.839 74.114 225.353 74.212 225.847 74.408C226.342 74.5998 226.785 74.896 227.177 75.2965C227.573 75.6928 227.886 76.1935 228.116 76.7987C228.347 77.3995 228.462 78.1112 228.462 78.9336V79.4961H220.791V78.4925H227.298C227.298 77.8619 227.17 77.2951 226.915 76.7923C226.663 76.2852 226.312 75.8846 225.86 75.5906C225.413 75.2965 224.895 75.1495 224.307 75.1495C223.685 75.1495 223.137 75.3157 222.664 75.6481C222.191 75.9805 221.82 76.4194 221.552 76.9648C221.288 77.5103 221.153 78.1069 221.149 78.7546V79.3555C221.149 80.1353 221.283 80.8171 221.552 81.4009C221.825 81.9805 222.21 82.43 222.709 82.7496C223.207 83.0692 223.798 83.229 224.479 83.229C224.944 83.229 225.351 83.1566 225.7 83.0117C226.054 82.8668 226.35 82.6729 226.589 82.43C226.832 82.1829 227.015 81.9123 227.138 81.6183L228.219 81.9698C228.07 82.3832 227.825 82.7646 227.484 83.114C227.147 83.4634 226.725 83.7447 226.218 83.9577C225.715 84.1665 225.136 84.271 224.479 84.271ZM237.566 76.4023L236.524 76.6964C236.421 76.4023 236.276 76.136 236.089 75.8974C235.901 75.6587 235.656 75.4691 235.354 75.3285C235.056 75.1879 234.685 75.1175 234.242 75.1175C233.577 75.1175 233.031 75.2752 232.605 75.5906C232.179 75.9059 231.966 76.3129 231.966 76.8114C231.966 77.2333 232.111 77.5763 232.401 77.8406C232.695 78.1005 233.146 78.3072 233.756 78.4606L235.239 78.8249C236.061 79.0252 236.677 79.3427 237.086 79.7773C237.499 80.212 237.706 80.7575 237.706 81.4137C237.706 81.9677 237.553 82.4599 237.246 82.8903C236.939 83.3207 236.511 83.6594 235.961 83.9066C235.416 84.1495 234.783 84.271 234.063 84.271C233.104 84.271 232.313 84.0558 231.691 83.6254C231.069 83.1907 230.671 82.5643 230.496 81.7461L231.589 81.4776C231.73 82.0614 232.004 82.5025 232.414 82.8008C232.827 83.0991 233.37 83.2482 234.044 83.2482C234.798 83.2482 235.401 83.0799 235.852 82.7433C236.304 82.4023 236.53 81.9762 236.53 81.4648C236.53 81.0685 236.398 80.7362 236.134 80.4677C235.869 80.195 235.469 79.9947 234.932 79.8668L233.328 79.4833C232.475 79.2788 231.845 78.9549 231.436 78.5117C231.026 78.0685 230.822 77.5188 230.822 76.8626C230.822 76.3214 230.969 75.8462 231.263 75.4371C231.557 75.0238 231.962 74.6999 232.477 74.4656C232.993 74.2312 233.581 74.114 234.242 74.114C235.141 74.114 235.859 74.3185 236.396 74.7276C236.937 75.1325 237.327 75.6907 237.566 76.4023ZM240.21 84.0664V74.2482H241.354V84.0664H240.21ZM240.792 72.5607C240.558 72.5607 240.357 72.4819 240.191 72.3242C240.025 72.1623 239.942 71.9684 239.942 71.7425C239.942 71.5167 240.025 71.3249 240.191 71.1673C240.357 71.0053 240.558 70.9244 240.792 70.9244C241.026 70.9244 241.227 71.0053 241.393 71.1673C241.559 71.3249 241.642 71.5167 241.642 71.7425C241.642 71.9684 241.559 72.1623 241.393 72.3242C241.227 72.4819 241.026 72.5607 240.792 72.5607ZM256.023 76.4023L254.981 76.6964C254.878 76.4023 254.733 76.136 254.546 75.8974C254.358 75.6587 254.113 75.4691 253.811 75.3285C253.513 75.1879 253.142 75.1175 252.699 75.1175C252.034 75.1175 251.488 75.2752 251.062 75.5906C250.636 75.9059 250.423 76.3129 250.423 76.8114C250.423 77.2333 250.568 77.5763 250.858 77.8406C251.152 78.1005 251.604 78.3072 252.213 78.4606L253.696 78.8249C254.518 79.0252 255.134 79.3427 255.543 79.7773C255.956 80.212 256.163 80.7575 256.163 81.4137C256.163 81.9677 256.01 82.4599 255.703 82.8903C255.396 83.3207 254.968 83.6594 254.418 83.9066C253.873 84.1495 253.24 84.271 252.52 84.271C251.561 84.271 250.77 84.0558 250.148 83.6254C249.526 83.1907 249.128 82.5643 248.953 81.7461L250.046 81.4776C250.187 82.0614 250.461 82.5025 250.871 82.8008C251.284 83.0991 251.827 83.2482 252.501 83.2482C253.255 83.2482 253.858 83.0799 254.309 82.7433C254.761 82.4023 254.987 81.9762 254.987 81.4648C254.987 81.0685 254.855 80.7362 254.591 80.4677C254.327 80.195 253.926 79.9947 253.389 79.8668L251.785 79.4833C250.932 79.2788 250.302 78.9549 249.893 78.5117C249.483 78.0685 249.279 77.5188 249.279 76.8626C249.279 76.3214 249.426 75.8462 249.72 75.4371C250.014 75.0238 250.419 74.6999 250.934 74.4656C251.45 74.2312 252.038 74.114 252.699 74.114C253.598 74.114 254.316 74.3185 254.853 74.7276C255.394 75.1325 255.784 75.6907 256.023 76.4023ZM262.471 84.271C261.623 84.271 260.873 84.0558 260.221 83.6254C259.573 83.195 259.066 82.6005 258.699 81.842C258.333 81.0792 258.15 80.1992 258.15 79.2021C258.15 78.1964 258.333 77.3121 258.699 76.5494C259.066 75.7823 259.573 75.1857 260.221 74.7596C260.873 74.3292 261.623 74.114 262.471 74.114C263.319 74.114 264.066 74.3292 264.714 74.7596C265.362 75.19 265.869 75.7866 266.235 76.5494C266.606 77.3121 266.792 78.1964 266.792 79.2021C266.792 80.1992 266.608 81.0792 266.242 81.842C265.875 82.6005 265.366 83.195 264.714 83.6254C264.066 84.0558 263.319 84.271 262.471 84.271ZM262.471 83.229C263.152 83.229 263.73 83.0458 264.203 82.6793C264.676 82.3129 265.034 81.8249 265.277 81.2156C265.524 80.6062 265.647 79.935 265.647 79.2021C265.647 78.4691 265.524 77.7958 265.277 77.1822C265.034 76.5685 264.676 76.0763 264.203 75.7056C263.73 75.3349 263.152 75.1495 262.471 75.1495C261.793 75.1495 261.216 75.3349 260.738 75.7056C260.265 76.0763 259.905 76.5685 259.658 77.1822C259.415 77.7958 259.294 78.4691 259.294 79.2021C259.294 79.935 259.415 80.6062 259.658 81.2156C259.905 81.8249 260.265 82.3129 260.738 82.6793C261.211 83.0458 261.789 83.229 262.471 83.229ZM271.135 84.0664L268.169 74.2482H269.371L271.697 82.3469H271.781L274.101 74.2482H275.309L277.61 82.3278H277.7L280.026 74.2482H281.228L278.262 84.0664H277.086L274.759 76.0188H274.638L272.311 84.0664H271.135ZM286.851 87.9528C286.182 87.9528 285.596 87.8654 285.094 87.6907C284.591 87.5202 284.167 87.2859 283.822 86.9876C283.476 86.6893 283.208 86.3548 283.016 85.984L283.949 85.3704C284.09 85.6175 284.278 85.8604 284.512 86.0991C284.751 86.3377 285.059 86.5359 285.439 86.6935C285.822 86.8512 286.293 86.93 286.851 86.93C287.721 86.93 288.422 86.7127 288.954 86.2781C289.491 85.8434 289.76 85.168 289.76 84.2518V82.0401H289.657C289.525 82.3384 289.336 82.6367 289.089 82.935C288.841 83.229 288.518 83.4741 288.117 83.6701C287.721 83.8661 287.229 83.9641 286.64 83.9641C285.856 83.9641 285.16 83.7702 284.55 83.3825C283.945 82.9947 283.468 82.4407 283.118 81.7205C282.773 80.9961 282.601 80.1332 282.601 79.1317C282.601 78.1388 282.769 77.2653 283.106 76.511C283.447 75.7567 283.922 75.1687 284.531 74.7468C285.14 74.3249 285.85 74.114 286.66 74.114C287.26 74.114 287.759 74.2205 288.155 74.4336C288.552 74.6424 288.869 74.9023 289.108 75.2134C289.351 75.5245 289.54 75.8271 289.677 76.1211H289.792V74.2482H290.904V84.3221C290.904 85.1531 290.727 85.837 290.373 86.3739C290.02 86.9109 289.538 87.3072 288.929 87.5629C288.319 87.8228 287.627 87.9528 286.851 87.9528ZM286.775 82.9222C287.405 82.9222 287.944 82.771 288.392 82.4684C288.839 82.1616 289.182 81.7227 289.421 81.1516C289.66 80.5806 289.779 79.9009 289.779 79.1126C289.779 78.3455 289.662 77.6658 289.427 77.0735C289.193 76.4769 288.852 76.0082 288.405 75.6673C287.961 75.3221 287.418 75.1495 286.775 75.1495C286.118 75.1495 285.564 75.3263 285.113 75.68C284.661 76.0337 284.32 76.511 284.09 77.1119C283.86 77.7085 283.745 78.3754 283.745 79.1126C283.745 79.8626 283.862 80.5252 284.096 81.1005C284.331 81.6715 284.674 82.119 285.126 82.4428C285.577 82.7624 286.127 82.9222 286.775 82.9222ZM296.658 84.2901C296.066 84.2901 295.525 84.1751 295.035 83.945C294.545 83.7106 294.155 83.3739 293.865 82.935C293.575 82.4918 293.43 81.9549 293.43 81.3242C293.43 80.8384 293.522 80.4293 293.705 80.0969C293.888 79.7646 294.148 79.4918 294.485 79.2788C294.822 79.0657 295.22 78.8974 295.68 78.7738C296.141 78.6502 296.648 78.5543 297.202 78.4862C297.751 78.418 298.216 78.3583 298.595 78.3072C298.979 78.256 299.271 78.1751 299.471 78.0643C299.671 77.9535 299.771 77.7745 299.771 77.5273V77.2972C299.771 76.6282 299.571 76.1019 299.17 75.7184C298.774 75.3306 298.203 75.1367 297.457 75.1367C296.75 75.1367 296.173 75.2923 295.725 75.6033C295.282 75.9144 294.971 76.2809 294.792 76.7028L293.712 76.3129C293.933 75.7759 294.24 75.3477 294.632 75.0281C295.024 74.7042 295.463 74.4719 295.949 74.3313C296.435 74.1864 296.927 74.114 297.425 74.114C297.8 74.114 298.19 74.163 298.595 74.261C299.004 74.359 299.384 74.5295 299.733 74.7724C300.082 75.011 300.366 75.3455 300.583 75.7759C300.8 76.2021 300.909 76.7433 300.909 77.3995V84.0664H299.771V82.5131H299.701C299.565 82.8029 299.362 83.0842 299.094 83.3569C298.825 83.6296 298.489 83.8533 298.084 84.0281C297.679 84.2028 297.204 84.2901 296.658 84.2901ZM296.812 83.2482C297.417 83.2482 297.941 83.114 298.384 82.8455C298.827 82.5771 299.168 82.2212 299.407 81.7781C299.65 81.3306 299.771 80.8384 299.771 80.3015V78.8825C299.686 78.9634 299.543 79.0359 299.343 79.0998C299.147 79.1637 298.919 79.2212 298.659 79.2724C298.403 79.3192 298.148 79.3597 297.892 79.3938C297.636 79.4279 297.406 79.4577 297.202 79.4833C296.648 79.5515 296.175 79.658 295.783 79.8029C295.391 79.9478 295.09 80.1481 294.881 80.4038C294.673 80.6552 294.568 80.979 294.568 81.3754C294.568 81.9719 294.781 82.4343 295.207 82.7624C295.634 83.0863 296.168 83.2482 296.812 83.2482ZM307.803 74.2482V75.239H303.118V74.2482H307.803ZM304.581 71.896H305.725V81.5032C305.725 81.9123 305.796 82.234 305.936 82.4684C306.077 82.6985 306.26 82.8626 306.486 82.9606C306.712 83.0543 306.953 83.1012 307.208 83.1012C307.358 83.1012 307.485 83.0927 307.592 83.0756C307.699 83.0543 307.792 83.033 307.873 83.0117L308.116 84.0408C308.005 84.0835 307.869 84.1218 307.707 84.1559C307.545 84.1942 307.345 84.2134 307.106 84.2134C306.689 84.2134 306.286 84.1218 305.898 83.9386C305.515 83.7553 305.199 83.4826 304.952 83.1204C304.705 82.7582 304.581 82.3086 304.581 81.7717V71.896ZM319.419 84.271C318.503 84.271 317.71 84.0579 317.041 83.6317C316.372 83.2013 315.854 82.6069 315.488 81.8484C315.126 81.0856 314.944 80.2077 314.944 79.2148C314.944 78.2262 315.126 77.3484 315.488 76.5813C315.854 75.81 316.359 75.207 317.003 74.7724C317.65 74.3335 318.398 74.114 319.246 74.114C319.779 74.114 320.292 74.212 320.787 74.408C321.281 74.5998 321.724 74.896 322.116 75.2965C322.513 75.6928 322.826 76.1935 323.056 76.7987C323.286 77.3995 323.401 78.1112 323.401 78.9336V79.4961H315.731V78.4925H322.238C322.238 77.8619 322.11 77.2951 321.854 76.7923C321.603 76.2852 321.251 75.8846 320.8 75.5906C320.352 75.2965 319.834 75.1495 319.246 75.1495C318.624 75.1495 318.077 75.3157 317.604 75.6481C317.131 75.9805 316.76 76.4194 316.491 76.9648C316.227 77.5103 316.093 78.1069 316.089 78.7546V79.3555C316.089 80.1353 316.223 80.8171 316.491 81.4009C316.764 81.9805 317.15 82.43 317.648 82.7496C318.147 83.0692 318.737 83.229 319.419 83.229C319.883 83.229 320.29 83.1566 320.64 83.0117C320.993 82.8668 321.29 82.6729 321.528 82.43C321.771 82.1829 321.954 81.9123 322.078 81.6183L323.158 81.9698C323.009 82.3832 322.764 82.7646 322.423 83.114C322.086 83.4634 321.665 83.7447 321.157 83.9577C320.655 84.1665 320.075 84.271 319.419 84.271ZM329.443 84.271C328.638 84.271 327.933 84.0579 327.327 83.6317C326.722 83.2056 326.249 82.6112 325.908 81.8484C325.572 81.0856 325.403 80.1971 325.403 79.1829C325.403 78.1729 325.572 77.2887 325.908 76.5302C326.249 75.7674 326.724 75.1751 327.334 74.7532C327.943 74.3271 328.653 74.114 329.462 74.114C330.059 74.114 330.555 74.2205 330.952 74.4336C331.348 74.6424 331.665 74.9023 331.904 75.2134C332.143 75.5245 332.328 75.8271 332.46 76.1211H332.562V70.9755H333.707V84.0664H332.594V82.2447H332.46C332.328 82.543 332.141 82.8498 331.898 83.1651C331.655 83.4762 331.333 83.7383 330.933 83.9513C330.536 84.1644 330.04 84.271 329.443 84.271ZM329.577 83.229C330.212 83.229 330.754 83.0565 331.201 82.7113C331.648 82.3619 331.989 81.8825 332.224 81.2731C332.462 80.6594 332.582 79.9563 332.582 79.1637C332.582 78.3796 332.464 77.6871 332.23 77.0863C331.996 76.4812 331.655 76.0082 331.207 75.6673C330.76 75.3221 330.217 75.1495 329.577 75.1495C328.921 75.1495 328.367 75.3285 327.915 75.6864C327.468 76.0401 327.127 76.5195 326.893 77.1246C326.663 77.7298 326.548 78.4094 326.548 79.1637C326.548 79.9265 326.665 80.6147 326.899 81.2283C327.134 81.842 327.474 82.3299 327.922 82.6921C328.374 83.0501 328.925 83.229 329.577 83.229ZM336.96 84.0664V74.2482H338.104V84.0664H336.96ZM337.542 72.5607C337.308 72.5607 337.107 72.4819 336.941 72.3242C336.775 72.1623 336.692 71.9684 336.692 71.7425C336.692 71.5167 336.775 71.3249 336.941 71.1673C337.107 71.0053 337.308 70.9244 337.542 70.9244C337.776 70.9244 337.977 71.0053 338.143 71.1673C338.309 71.3249 338.392 71.5167 338.392 71.7425C338.392 71.9684 338.309 72.1623 338.143 72.3242C337.977 72.4819 337.776 72.5607 337.542 72.5607ZM342.251 70.9755V84.0664H341.113V70.9755H342.251ZM348.797 84.271C347.991 84.271 347.286 84.0579 346.681 83.6317C346.076 83.2056 345.603 82.6112 345.262 81.8484C344.925 81.0856 344.757 80.1971 344.757 79.1829C344.757 78.1729 344.925 77.2887 345.262 76.5302C345.603 75.7674 346.078 75.1751 346.687 74.7532C347.297 74.3271 348.006 74.114 348.816 74.114C349.412 74.114 349.909 74.2205 350.305 74.4336C350.702 74.6424 351.019 74.9023 351.258 75.2134C351.496 75.5245 351.682 75.8271 351.814 76.1211H351.916V70.9755H353.06V84.0664H351.948V82.2447H351.814C351.682 82.543 351.494 82.8498 351.251 83.1651C351.008 83.4762 350.687 83.7383 350.286 83.9513C349.89 84.1644 349.393 84.271 348.797 84.271ZM348.931 83.229C349.566 83.229 350.107 83.0565 350.555 82.7113C351.002 82.3619 351.343 81.8825 351.577 81.2731C351.816 80.6594 351.935 79.9563 351.935 79.1637C351.935 78.3796 351.818 77.6871 351.584 77.0863C351.349 76.4812 351.008 76.0082 350.561 75.6673C350.113 75.3221 349.57 75.1495 348.931 75.1495C348.275 75.1495 347.721 75.3285 347.269 75.6864C346.822 76.0401 346.481 76.5195 346.246 77.1246C346.016 77.7298 345.901 78.4094 345.901 79.1637C345.901 79.9265 346.018 80.6147 346.253 81.2283C346.487 81.842 346.828 82.3299 347.275 82.6921C347.727 83.0501 348.279 83.229 348.931 83.229ZM356.314 84.0664V74.2482H357.458V84.0664H356.314ZM356.895 72.5607C356.661 72.5607 356.461 72.4819 356.295 72.3242C356.128 72.1623 356.045 71.9684 356.045 71.7425C356.045 71.5167 356.128 71.3249 356.295 71.1673C356.461 71.0053 356.661 70.9244 356.895 70.9244C357.13 70.9244 357.33 71.0053 357.496 71.1673C357.662 71.3249 357.746 71.5167 357.746 71.7425C357.746 71.9684 357.662 72.1623 357.496 72.3242C357.33 72.4819 357.13 72.5607 356.895 72.5607Z" fill="white"/>
</g>
<defs>
<filter id="filter0_b_170_5751" x="-124" y="-99.9336" width="715" height="332" filterUnits="userSpaceOnUse" color-interpolation-filters="sRGB">
<feFlood flood-opacity="0" result="BackgroundImageFix"/>
<feGaussianBlur in="BackgroundImageFix" stdDeviation="62"/>
<feComposite in2="SourceAlpha" operator="in" result="effect1_backgroundBlur_170_5751"/>
<feBlend mode="normal" in="SourceGraphic" in2="effect1_backgroundBlur_170_5751" result="shape"/>
</filter>
</defs>
</svg>
