<svg width="50" height="45" viewBox="0 0 50 45" fill="none" xmlns="http://www.w3.org/2000/svg">
<path fill-rule="evenodd" clip-rule="evenodd" d="M25.1531 0.76107L40.9537 5.64131C41.1643 5.70613 41.2982 5.9006 41.2982 6.10433C41.2982 11.355 41.4992 15.4018 41.6619 18.6614C42.3414 32.1816 42.351 32.3668 25.2775 44.1739C25.0957 44.2943 24.8564 44.285 24.6938 44.1646C7.62988 32.3576 7.63945 32.1631 8.31895 18.6522C8.48164 15.3925 8.68262 11.3457 8.68262 6.09507C8.68262 5.86356 8.85488 5.66909 9.075 5.62279L24.8373 0.76107C24.9426 0.733289 25.0479 0.733289 25.1436 0.76107H25.1531ZM7.2375 26.931H0.997656C0.720117 26.931 0.5 26.718 0.5 26.4494V11.855C0.5 11.5865 0.720117 11.3735 0.997656 11.3735H7.62031C7.55332 13.7812 7.44805 16.1889 7.3332 18.6059C7.21836 20.921 7.06523 23.3009 7.16094 25.6067C7.18008 26.0512 7.20879 26.4865 7.24707 26.931H7.2375ZM42.3797 11.3735H49.0023C49.2799 11.3735 49.5 11.5865 49.5 11.855V26.4494C49.5 26.718 49.2799 26.931 49.0023 26.931H42.7816C42.8199 26.505 42.8391 26.079 42.8582 25.6531C42.9443 23.3287 42.7816 20.9302 42.6668 18.6059C42.5424 16.1889 42.4467 13.7812 42.3797 11.3735ZM44.0928 14.7628C44.1406 17.6891 44.2363 20.6246 44.2746 23.5509H45.9973V14.7628H44.0928ZM5.71582 23.5509C5.74453 20.6246 5.82109 17.6891 5.87852 14.7628H4.00273V23.5509H5.71582ZM13.0563 8.3083L24.5502 4.76157C24.8469 4.66896 25.1627 4.66896 25.4594 4.76157L36.9438 8.3083C37.5658 8.50277 37.9965 9.03988 38.0061 9.67884C38.0635 13.7812 38.2932 17.9299 38.4559 22.0322C38.6855 27.8292 38.3027 29.9591 33.9387 33.6263C31.393 35.7654 28.6271 37.6545 25.8805 39.5437C25.335 39.9141 24.6555 39.9048 24.1004 39.5251C21.2963 37.599 16.2145 34.1448 13.9559 31.6353C13.2477 30.8481 12.6256 29.9684 12.2236 28.9868C11.3623 26.8662 11.4771 24.1436 11.5633 21.9026C11.726 17.8373 11.9557 13.7442 12.0131 9.6881C12.0227 9.06766 12.4438 8.51203 13.0563 8.32682V8.3083ZM13.3529 9.23435L24.8469 5.68761C24.9426 5.65983 25.0479 5.65057 25.1531 5.68761L36.6375 9.23435C36.848 9.28991 37.0012 9.47512 37.0012 9.6881C37.0586 13.7997 37.2883 17.9391 37.451 22.0693C37.5275 24.0695 37.6328 26.7087 36.848 28.6256C36.1494 30.3296 34.666 31.7279 33.2783 32.8947C30.8188 34.9598 28.0242 36.8767 25.3254 38.7287C25.1053 38.8769 24.9043 38.8862 24.6746 38.7287C21.9471 36.8581 16.8748 33.404 14.7023 30.9963C14.0611 30.2833 13.5061 29.4961 13.152 28.6349C12.3576 26.681 12.482 23.9769 12.5586 21.9396C12.7213 17.8465 12.951 13.7719 13.0084 9.69737C13.0084 9.49364 13.1424 9.30843 13.3529 9.24361V9.23435ZM22.5883 26.0512L31.948 16.9946C32.5318 16.4297 33.4793 16.4297 34.0727 16.9946C34.6564 17.5595 34.6564 18.4762 34.0727 19.0504L23.6506 29.135C23.0668 29.6999 22.1193 29.6999 21.526 29.135L15.9273 23.7176C15.3436 23.1527 15.3436 22.236 15.9273 21.6618C16.5111 21.0969 17.4586 21.0969 18.052 21.6618L22.5883 26.0512Z" fill="#34A853"/>
</svg>
