<svg width="49" height="49" viewBox="0 0 49 49" fill="none" xmlns="http://www.w3.org/2000/svg">
<g clip-path="url(#clip0_170_7215)">
<path d="M24.7502 8.3335C15.8181 8.3335 8.5835 15.5681 8.5835 24.5002C8.5835 33.4322 15.8181 40.6668 24.7502 40.6668C33.6822 40.6668 40.9168 33.4322 40.9168 24.5002C40.9168 15.5681 33.6822 8.3335 24.7502 8.3335ZM33.3387 32.8866L22.7293 26.521V14.396H25.7606V25.0054L34.8543 30.401L33.3387 32.8866Z" fill="#059B36"/>
<path d="M24.7296 4.2915C13.5746 4.2915 4.5415 13.3448 4.5415 24.4998C4.5415 35.6548 13.5746 44.7082 24.7296 44.7082C35.9048 44.7082 44.9582 35.6548 44.9582 24.4998C44.9582 13.3448 35.9048 4.2915 24.7296 4.2915ZM24.7498 40.6665C15.8178 40.6665 8.58317 33.4319 8.58317 24.4998C8.58317 15.5678 15.8178 8.33317 24.7498 8.33317C33.6819 8.33317 40.9165 15.5678 40.9165 24.4998C40.9165 33.4319 33.6819 40.6665 24.7498 40.6665ZM25.7603 14.3957H22.729V26.5207L33.3384 32.8863L34.854 30.4007L25.7603 25.005V14.3957Z" fill="#D9D9D9"/>
</g>
<defs>
<clipPath id="clip0_170_7215">
<rect width="48.5" height="48.5" fill="white" transform="translate(0.5 0.25)"/>
</clipPath>
</defs>
</svg>
