<svg width="63" height="43" viewBox="0 0 63 43" fill="none" xmlns="http://www.w3.org/2000/svg">
<path d="M44.5543 15.1553C44.4994 14.9766 44.6093 14.7979 44.7742 14.7979H57.3591C57.7438 14.7979 57.9637 15.2744 57.7438 15.6319L54.3915 21.2319C54.2816 21.4106 54.2816 21.6489 54.3915 21.8276L57.7438 27.4276C57.9637 27.7851 57.7438 28.2617 57.3591 28.2617H44.7742C44.6093 28.2617 44.4994 28.0829 44.5543 27.9042C44.7742 27.3085 45.1039 26.7723 45.5435 26.3553L47.467 24.568C49.1157 23.0191 49.1157 20.0404 47.467 18.4915L45.5435 16.7042C45.1039 16.2872 44.7742 15.751 44.5543 15.1553Z" fill="#34A853"/>
<path d="M45.6531 19.0276L43.9495 17.5978C43.1251 16.9425 42.7404 15.8106 42.8503 14.7382L43.1251 12.4148C43.3449 10.3893 41.7512 8.66163 39.8827 8.89993L37.7394 9.1978C36.7502 9.31695 35.706 8.89993 35.1015 8.00631L33.7826 6.15951C32.6285 4.551 30.3753 4.551 29.2212 6.15951L27.9022 8.00631C27.2977 8.89993 26.2536 9.31695 25.2644 9.1978L23.1211 8.89993C21.2525 8.66163 19.6588 10.3893 19.8786 12.4148L20.1534 14.7382C20.2633 15.8106 19.8786 16.9425 19.0543 17.5978L17.3507 19.0276C15.8668 20.2786 15.8668 22.7212 17.3507 23.9722L19.0543 25.402C19.8786 26.0573 20.2633 27.1893 20.1534 28.2616L19.8786 30.585C19.6588 32.6105 21.2525 34.3382 23.1211 34.0999L25.2644 33.802C26.2536 33.6829 27.2977 34.0999 27.9022 34.9935L29.2212 36.8403C30.3753 38.4488 32.6285 38.4488 33.7826 36.8403L35.1015 34.9935C35.706 34.0999 36.7502 33.6829 37.7394 33.802L39.8827 34.0999C41.7512 34.3382 43.3449 32.6105 43.1251 30.585L42.8503 28.2616C42.7404 27.1893 43.1251 26.0573 43.9495 25.402L45.6531 23.9722C47.1919 22.7808 47.1919 20.2786 45.6531 19.0276ZM31.4744 33.8616C25.2094 33.8616 20.0985 28.3212 20.0985 21.5297C20.0985 14.7382 25.2094 9.1978 31.4744 9.1978C37.7394 9.1978 42.8503 14.7382 42.8503 21.5297C42.8503 28.3212 37.7394 33.8616 31.4744 33.8616Z" fill="#34A853"/>
<path d="M31.4746 11.0449C26.1438 11.0449 21.8023 15.7513 21.8023 21.53C21.8023 27.3087 26.1438 32.0151 31.4746 32.0151C36.8053 32.0151 41.1469 27.3087 41.1469 21.53C41.1469 15.7513 36.8053 11.0449 31.4746 11.0449ZM36.6404 19.2662L30.4304 25.8194C30.2655 25.9981 30.0457 25.9981 29.8808 25.8194L26.2537 21.8279C26.0889 21.6492 26.0889 21.4109 26.2537 21.2321L27.6826 19.8024C27.8475 19.6236 28.0673 19.6832 28.2321 19.8024L29.9358 21.8279C30.1007 22.0066 30.3205 22.0066 30.4853 21.8279L34.717 17.2407C34.8818 17.0619 35.1017 17.0619 35.2665 17.2407L36.6404 18.6704C36.8053 18.8492 36.8053 19.0875 36.6404 19.2662ZM18.395 27.9045C18.4499 28.0832 18.34 28.2619 18.1752 28.2619H5.59019C5.20549 28.2619 4.98567 27.7853 5.20549 27.4279L8.55782 21.8279C8.66773 21.6492 8.66773 21.4109 8.55782 21.2321L5.20549 15.6321C4.98567 15.2747 5.20549 14.7981 5.59019 14.7981H18.1752C18.34 14.7981 18.4499 14.9768 18.395 15.1556C18.1752 15.7513 17.8454 16.2875 17.4058 16.7045L15.4823 18.4917C13.8336 20.0407 13.8336 23.0194 15.4823 24.5683L17.4058 26.3555C17.8454 26.7726 18.1752 27.3087 18.395 27.9045Z" fill="#34A853"/>
</svg>
