<svg width="29" height="29" viewBox="0 0 29 29" fill="none" xmlns="http://www.w3.org/2000/svg">
<rect x="0.425293" y="0.5" width="28" height="28" rx="4" fill="#DBDBDB"/>
<path d="M23.4253 14.72C23.4253 9.23 19.1653 5.5 14.4253 5.5C9.73529 5.5 5.42529 9.15 5.42529 14.78C4.82529 15.12 4.42529 15.76 4.42529 16.5V18.5C4.42529 19.6 5.32529 20.5 6.42529 20.5H7.42529V14.4C7.42529 10.53 10.5553 7.4 14.4253 7.4C18.2953 7.4 21.4253 10.53 21.4253 14.4V21.5H13.4253V23.5H21.4253C22.5253 23.5 23.4253 22.6 23.4253 21.5V20.28C24.0153 19.97 24.4253 19.36 24.4253 18.64V16.34C24.4253 15.64 24.0153 15.03 23.4253 14.72Z" fill="#333333"/>
<path d="M11.4253 16.5C11.9776 16.5 12.4253 16.0523 12.4253 15.5C12.4253 14.9477 11.9776 14.5 11.4253 14.5C10.873 14.5 10.4253 14.9477 10.4253 15.5C10.4253 16.0523 10.873 16.5 11.4253 16.5Z" fill="#333333"/>
<path d="M17.4253 16.5C17.9776 16.5 18.4253 16.0523 18.4253 15.5C18.4253 14.9477 17.9776 14.5 17.4253 14.5C16.873 14.5 16.4253 14.9477 16.4253 15.5C16.4253 16.0523 16.873 16.5 17.4253 16.5Z" fill="#333333"/>
<path d="M20.4253 13.53C19.9453 10.68 17.4653 8.5 14.4753 8.5C11.4453 8.5 8.18529 11.01 8.44529 14.95C10.9153 13.94 12.7753 11.74 13.3053 9.06C14.6153 11.69 17.3053 13.5 20.4253 13.53Z" fill="#333333"/>
</svg>
